<svg width="115" height="34" viewBox="0 0 115 34" fill="none" xmlns="http://www.w3.org/2000/svg">
<path d="M5.19668 33.24C4.35668 33.24 3.59668 33.04 2.91668 32.64C2.23668 32.24 1.67668 31.7 1.23668 31.02C0.836676 30.3 0.636676 29.52 0.636676 28.68C0.636676 27.84 0.836676 27.08 1.23668 26.4C1.67668 25.68 2.23668 25.12 2.91668 24.72C3.59668 24.32 4.35668 24.12 5.19668 24.12C6.03668 24.12 6.79668 24.32 7.47668 24.72C8.15668 25.12 8.69668 25.68 9.09668 26.4C9.53668 27.08 9.75668 27.84 9.75668 28.68C9.75668 29.52 9.53668 30.3 9.09668 31.02C8.69668 31.7 8.15668 32.24 7.47668 32.64C6.79668 33.04 6.03668 33.24 5.19668 33.24ZM23.731 33V1.62H30.031L30.271 5.82C31.191 4.26 32.451 3.02 34.051 2.1C35.651 1.18 37.471 0.719997 39.511 0.719997C41.711 0.719997 43.651 1.28 45.331 2.4C47.011 3.48 48.311 4.98 49.231 6.9C49.831 5.66 50.631 4.58 51.631 3.66C52.671 2.74 53.871 2.02 55.231 1.5C56.631 0.979997 58.1311 0.719997 59.7311 0.719997C62.051 0.719997 64.071 1.28 65.791 2.4C67.511 3.48 68.8311 5.04 69.7511 7.08C70.7111 9.08 71.1911 11.48 71.1911 14.28V33H64.291V15.06C64.291 12.46 63.731 10.46 62.611 9.06C61.491 7.66 59.951 6.96 57.991 6.96C56.631 6.96 55.411 7.3 54.331 7.98C53.291 8.62 52.451 9.54 51.811 10.74C51.211 11.9 50.9111 13.22 50.9111 14.7V33H44.011V15.06C44.011 12.46 43.451 10.46 42.331 9.06C41.211 7.66 39.671 6.96 37.711 6.96C36.351 6.96 35.131 7.3 34.051 7.98C33.011 8.62 32.171 9.54 31.531 10.74C30.931 11.9 30.631 13.22 30.631 14.7V33H23.731ZM100.413 33.9C98.0934 33.9 95.9534 33.5 93.9934 32.7C92.0734 31.86 90.3934 30.7 88.9534 29.22C87.5134 27.74 86.3934 26 85.5934 24C84.8334 21.96 84.4534 19.72 84.4534 17.28C84.4534 14.92 84.8334 12.74 85.5934 10.74C86.3934 8.74 87.4734 7 88.8334 5.52C90.2334 4 91.8734 2.82 93.7534 1.98C95.6334 1.14 97.6734 0.719997 99.8734 0.719997C102.073 0.719997 104.073 1.12 105.873 1.92C107.713 2.68 109.293 3.78 110.613 5.22C111.973 6.66 113.013 8.38 113.733 10.38C114.453 12.34 114.813 14.52 114.813 16.92V18.96H91.5934C91.7934 20.8 92.2734 22.4 93.0334 23.76C93.8334 25.08 94.8534 26.1 96.0934 26.82C97.3334 27.54 98.7734 27.9 100.413 27.9C103.693 27.9 106.253 26.44 108.093 23.52L114.153 25.86C113.433 27.5 112.373 28.94 110.973 30.18C109.613 31.38 108.013 32.3 106.173 32.94C104.373 33.58 102.453 33.9 100.413 33.9ZM99.8734 6.3C98.4734 6.3 97.2134 6.62 96.0934 7.26C95.0134 7.9 94.0934 8.8 93.3334 9.96C92.5734 11.12 92.0534 12.48 91.7734 14.04H107.613C107.373 12.48 106.913 11.12 106.233 9.96C105.553 8.8 104.653 7.9 103.533 7.26C102.453 6.62 101.233 6.3 99.8734 6.3Z" fill="white"/>
</svg>
