<svg width="143" height="70" viewBox="0 0 143 70" fill="none" xmlns="http://www.w3.org/2000/svg">
<path d="M11.0145 38.75C9.64779 38.75 8.39779 38.55 7.26445 38.15C6.13112 37.75 5.13112 37.1833 4.26445 36.45C3.43112 35.6833 2.78112 34.8 2.31445 33.8C1.84779 32.8 1.61445 31.7 1.61445 30.5C1.61445 28.8333 2.06445 27.3667 2.96445 26.1C3.86445 24.8333 5.13112 23.85 6.76445 23.15C8.39779 22.4167 10.2978 22.05 12.4645 22.05C13.5645 22.05 14.5978 22.15 15.5645 22.35C16.5645 22.55 17.5311 22.8333 18.4645 23.2V21.65C18.4645 20.15 18.0311 18.9333 17.1645 18C16.3311 17.0667 15.1811 16.6 13.7145 16.6C12.6145 16.6 11.6145 16.8833 10.7145 17.45C9.81445 17.9833 9.18112 18.75 8.81445 19.75L2.56445 18.5C2.93112 16.9667 3.64779 15.6333 4.71445 14.5C5.81445 13.3333 7.14779 12.4333 8.71445 11.8C10.2811 11.1667 11.9811 10.85 13.8145 10.85C15.5145 10.85 17.0645 11.1167 18.4645 11.65C19.8645 12.1833 21.0645 12.95 22.0645 13.95C23.0978 14.95 23.8811 16.1333 24.4145 17.5C24.9811 18.8333 25.2645 20.3333 25.2645 22V38H19.0145L18.8145 34.9C18.1145 36.0333 17.0978 36.9667 15.7645 37.7C14.4311 38.4 12.8478 38.75 11.0145 38.75ZM8.51445 30.15C8.51445 31.0833 8.89779 31.85 9.66445 32.45C10.4311 33.05 11.4478 33.35 12.7145 33.35C13.8145 33.35 14.7978 33.1167 15.6645 32.65C16.5311 32.1833 17.2145 31.55 17.7145 30.75C18.2145 29.9167 18.4645 29 18.4645 28V27.75C17.7311 27.45 16.9478 27.2167 16.1145 27.05C15.2811 26.85 14.4478 26.75 13.6145 26.75C12.0478 26.75 10.7978 27.0667 9.86445 27.7C8.96445 28.3 8.51445 29.1167 8.51445 30.15ZM30.843 38V0.699997H37.843V14.95C38.7763 13.6833 39.943 12.6833 41.343 11.95C42.7763 11.2167 44.343 10.85 46.043 10.85C47.7763 10.85 49.3763 11.2 50.843 11.9C52.3096 12.6 53.593 13.5833 54.693 14.85C55.793 16.0833 56.643 17.5333 57.243 19.2C57.8763 20.8667 58.193 22.6833 58.193 24.65C58.193 26.65 57.8763 28.5 57.243 30.2C56.6096 31.9 55.7263 33.4 54.593 34.7C53.4596 35.9667 52.1263 36.9667 50.593 37.7C49.0596 38.4 47.4096 38.75 45.643 38.75C43.9096 38.75 42.343 38.3833 40.943 37.65C39.543 36.9167 38.393 35.8833 37.493 34.55L37.293 38H30.843ZM44.393 32.45C45.6596 32.45 46.793 32.1167 47.793 31.45C48.793 30.7833 49.5763 29.8833 50.143 28.75C50.743 27.5833 51.043 26.2667 51.043 24.8C51.043 23.3333 50.743 22.0333 50.143 20.9C49.5763 19.7333 48.793 18.8167 47.793 18.15C46.793 17.4833 45.6596 17.15 44.393 17.15C43.1263 17.15 41.993 17.4833 40.993 18.15C39.993 18.8167 39.193 19.7333 38.593 20.9C38.0263 22.0333 37.743 23.3333 37.743 24.8C37.743 26.2667 38.0263 27.5833 38.593 28.75C39.193 29.8833 39.993 30.7833 40.993 31.45C41.993 32.1167 43.1263 32.45 44.393 32.45ZM75.7207 38.75C73.754 38.75 71.9374 38.4 70.2707 37.7C68.604 37 67.154 36.0333 65.9207 34.8C64.6874 33.5333 63.7207 32.05 63.0207 30.35C62.354 28.65 62.0207 26.8 62.0207 24.8C62.0207 22.8 62.3707 20.9667 63.0707 19.3C63.7707 17.6 64.7374 16.1167 65.9707 14.85C67.2374 13.5833 68.704 12.6 70.3707 11.9C72.0707 11.2 73.9207 10.85 75.9207 10.85C77.8874 10.85 79.704 11.2 81.3707 11.9C83.0374 12.6 84.4874 13.5833 85.7207 14.85C86.954 16.0833 87.904 17.55 88.5707 19.25C89.2707 20.9167 89.6207 22.75 89.6207 24.75C89.6207 26.75 89.2707 28.6 88.5707 30.3C87.8707 32 86.8874 33.4833 85.6207 34.75C84.3874 36.0167 82.9207 37 81.2207 37.7C79.554 38.4 77.7207 38.75 75.7207 38.75ZM75.8207 32.45C77.0874 32.45 78.2207 32.1167 79.2207 31.45C80.2207 30.7833 81.004 29.8833 81.5707 28.75C82.1707 27.5833 82.4707 26.2667 82.4707 24.8C82.4707 23.3333 82.1707 22.0333 81.5707 20.9C81.004 19.7333 80.2207 18.8167 79.2207 18.15C78.2207 17.4833 77.0874 17.15 75.8207 17.15C74.554 17.15 73.4207 17.4833 72.4207 18.15C71.4207 18.8167 70.6207 19.7333 70.0207 20.9C69.454 22.0333 69.1707 23.3333 69.1707 24.8C69.1707 26.2667 69.454 27.5833 70.0207 28.75C70.6207 29.8833 71.4207 30.7833 72.4207 31.45C73.4207 32.1167 74.554 32.45 75.8207 32.45ZM106.122 38.75C103.722 38.75 101.622 38.25 99.8219 37.25C98.0552 36.2167 96.6719 34.7667 95.6719 32.9C94.7052 31 94.2219 28.7667 94.2219 26.2V11.6H101.222V26.35C101.222 28.25 101.672 29.75 102.572 30.85C103.472 31.9167 104.689 32.45 106.222 32.45C107.755 32.45 108.972 31.9167 109.872 30.85C110.772 29.75 111.222 28.25 111.222 26.35V11.6H118.222V26.2C118.222 28.1 117.939 29.8167 117.372 31.35C116.805 32.8833 115.989 34.2 114.922 35.3C113.855 36.4 112.572 37.25 111.072 37.85C109.605 38.45 107.955 38.75 106.122 38.75ZM135.262 38.75C133.428 38.75 131.845 38.4 130.512 37.7C129.212 36.9667 128.195 35.9167 127.462 34.55C126.762 33.1833 126.412 31.5167 126.412 29.55V17.25H121.912V11.6H126.412V2.6H133.412V11.6H140.612V17.25H133.412V28.7C133.412 29.9667 133.678 30.95 134.212 31.65C134.745 32.3167 135.562 32.65 136.662 32.65C137.228 32.65 137.828 32.5667 138.462 32.4C139.128 32.2333 139.762 32.0167 140.362 31.75L141.612 37C140.745 37.5333 139.778 37.95 138.712 38.25C137.645 38.5833 136.495 38.75 135.262 38.75Z" fill="#212D40"/>
<path d="M54.3098 69V60.04H52.4098V58.68H54.3098V57.72C54.3098 56.96 54.4432 56.3 54.7098 55.74C54.9898 55.1667 55.3698 54.7267 55.8498 54.42C56.3432 54.1133 56.9098 53.96 57.5498 53.96C58.1898 53.96 58.7565 54.1133 59.2498 54.42L58.7898 55.66C58.6298 55.5667 58.4498 55.4933 58.2498 55.44C58.0632 55.3867 57.8632 55.36 57.6498 55.36C57.0898 55.36 56.6565 55.5667 56.3498 55.98C56.0565 56.38 55.9098 56.9733 55.9098 57.76V58.68H62.5498V69H60.9498V60.04H55.9098V69H54.3098ZM62.8498 55.66C62.8498 55.86 62.7965 56.0467 62.6898 56.22C62.5965 56.38 62.4632 56.5133 62.2898 56.62C62.1298 56.7133 61.9498 56.76 61.7498 56.76C61.5498 56.76 61.3632 56.7133 61.1898 56.62C61.0298 56.5133 60.8965 56.38 60.7898 56.22C60.6965 56.0467 60.6498 55.86 60.6498 55.66C60.6498 55.46 60.6965 55.28 60.7898 55.12C60.8965 54.9467 61.0298 54.8133 61.1898 54.72C61.3632 54.6133 61.5498 54.56 61.7498 54.56C61.9498 54.56 62.1298 54.6133 62.2898 54.72C62.4632 54.8133 62.5965 54.9467 62.6898 55.12C62.7965 55.28 62.8498 55.46 62.8498 55.66ZM69.6653 69.3C68.9853 69.3 68.352 69.1667 67.7653 68.9C67.1786 68.62 66.6653 68.2333 66.2253 67.74C65.7853 67.2467 65.4386 66.6733 65.1853 66.02C64.9453 65.3533 64.8253 64.6333 64.8253 63.86C64.8253 63.0867 64.9453 62.3667 65.1853 61.7C65.4386 61.0333 65.7853 60.4533 66.2253 59.96C66.6786 59.4667 67.2053 59.08 67.8053 58.8C68.4053 58.52 69.052 58.38 69.7453 58.38C70.532 58.38 71.2386 58.56 71.8653 58.92C72.5053 59.28 73.012 59.7867 73.3853 60.44V54.16H74.9853V69H73.5453L73.4653 67.04C73.092 67.7467 72.572 68.3 71.9053 68.7C71.252 69.1 70.5053 69.3 69.6653 69.3ZM69.9453 67.84C70.452 67.84 70.912 67.74 71.3253 67.54C71.752 67.34 72.1186 67.0667 72.4253 66.72C72.7453 66.36 72.992 65.94 73.1653 65.46C73.3386 64.9667 73.4253 64.4267 73.4253 63.84C73.4253 63.2533 73.3386 62.72 73.1653 62.24C72.992 61.7467 72.7453 61.3267 72.4253 60.98C72.1186 60.62 71.752 60.34 71.3253 60.14C70.912 59.94 70.452 59.84 69.9453 59.84C69.4386 59.84 68.972 59.94 68.5453 60.14C68.132 60.34 67.7653 60.62 67.4453 60.98C67.1386 61.3267 66.8986 61.7467 66.7253 62.24C66.552 62.72 66.4653 63.2533 66.4653 63.84C66.4653 64.4267 66.552 64.9667 66.7253 65.46C66.8986 65.94 67.1386 66.36 67.4453 66.72C67.7653 67.0667 68.132 67.34 68.5453 67.54C68.972 67.74 69.4386 67.84 69.9453 67.84ZM82.3667 69.3C81.6334 69.3 80.9534 69.1667 80.3267 68.9C79.7134 68.62 79.1734 68.24 78.7067 67.76C78.2534 67.2667 77.9001 66.6867 77.6467 66.02C77.3934 65.3533 77.2667 64.6267 77.2667 63.84C77.2667 63.0533 77.3934 62.3267 77.6467 61.66C77.9134 60.9933 78.2734 60.42 78.7267 59.94C79.1934 59.4467 79.7401 59.0667 80.3667 58.8C80.9934 58.52 81.6734 58.38 82.4067 58.38C83.1401 58.38 83.8134 58.52 84.4267 58.8C85.0534 59.0667 85.5934 59.4467 86.0467 59.94C86.5134 60.42 86.8734 60.9933 87.1267 61.66C87.3801 62.3267 87.5067 63.0533 87.5067 63.84C87.5067 64.6267 87.3734 65.3533 87.1067 66.02C86.8534 66.6867 86.4934 67.2667 86.0267 67.76C85.5734 68.24 85.0334 68.62 84.4067 68.9C83.7801 69.1667 83.1001 69.3 82.3667 69.3ZM82.3867 67.84C82.8934 67.84 83.3534 67.74 83.7667 67.54C84.1934 67.34 84.5601 67.0667 84.8667 66.72C85.1867 66.36 85.4334 65.94 85.6067 65.46C85.7801 64.9667 85.8667 64.4267 85.8667 63.84C85.8667 63.2533 85.7801 62.72 85.6067 62.24C85.4334 61.7467 85.1867 61.3267 84.8667 60.98C84.5601 60.62 84.1934 60.34 83.7667 60.14C83.3534 59.94 82.8934 59.84 82.3867 59.84C81.8801 59.84 81.4134 59.94 80.9867 60.14C80.5734 60.34 80.2067 60.62 79.8867 60.98C79.5801 61.3267 79.3401 61.7467 79.1667 62.24C78.9934 62.72 78.9067 63.2533 78.9067 63.84C78.9067 64.4267 78.9934 64.9667 79.1667 65.46C79.3401 65.94 79.5801 66.36 79.8867 66.72C80.2067 67.0667 80.5734 67.34 80.9867 67.54C81.4134 67.74 81.8801 67.84 82.3867 67.84ZM91.7916 65.22V62.1C92.9649 61.82 93.8649 61.38 94.4916 60.78C95.1182 60.18 95.4316 59.4667 95.4316 58.64C95.4316 58.1333 95.3116 57.68 95.0716 57.28C94.8449 56.8667 94.5249 56.5467 94.1116 56.32C93.6982 56.0933 93.2249 55.98 92.6916 55.98C92.2249 55.98 91.7916 56.0733 91.3916 56.26C90.9916 56.4333 90.6449 56.6933 90.3516 57.04C90.0716 57.3867 89.8649 57.7933 89.7316 58.26L88.2516 57.84C88.4249 57.1733 88.7182 56.5867 89.1316 56.08C89.5582 55.5733 90.0782 55.1867 90.6916 54.92C91.3049 54.64 91.9782 54.5 92.7116 54.5C93.3516 54.5 93.9382 54.6067 94.4716 54.82C95.0182 55.02 95.4916 55.3067 95.8916 55.68C96.2916 56.04 96.5982 56.4667 96.8116 56.96C97.0382 57.4533 97.1516 57.9867 97.1516 58.56C97.1516 59.2533 96.9982 59.9 96.6916 60.5C96.3849 61.0867 95.9449 61.6 95.3716 62.04C94.7982 62.48 94.1249 62.82 93.3516 63.06V65.22H91.7916ZM92.5716 69.06C92.3582 69.06 92.1649 69.0067 91.9916 68.9C91.8182 68.7933 91.6782 68.6533 91.5716 68.48C91.4649 68.2933 91.4116 68.1 91.4116 67.9C91.4116 67.7 91.4649 67.5133 91.5716 67.34C91.6782 67.1533 91.8182 67.0067 91.9916 66.9C92.1649 66.7933 92.3582 66.74 92.5716 66.74C92.7849 66.74 92.9782 66.7933 93.1516 66.9C93.3249 67.0067 93.4649 67.1533 93.5716 67.34C93.6782 67.5133 93.7316 67.7 93.7316 67.9C93.7316 68.1 93.6782 68.2933 93.5716 68.48C93.4649 68.6533 93.3249 68.7933 93.1516 68.9C92.9782 69.0067 92.7849 69.06 92.5716 69.06Z" fill="white"/>
</svg>
