<svg width="143" height="70" viewBox="0 0 143 70" fill="none" xmlns="http://www.w3.org/2000/svg">
<path d="M11.0145 38.75C9.64779 38.75 8.39779 38.55 7.26445 38.15C6.13112 37.75 5.13112 37.1833 4.26445 36.45C3.43112 35.6833 2.78112 34.8 2.31445 33.8C1.84779 32.8 1.61445 31.7 1.61445 30.5C1.61445 28.8333 2.06445 27.3667 2.96445 26.1C3.86445 24.8333 5.13112 23.85 6.76445 23.15C8.39779 22.4167 10.2978 22.05 12.4645 22.05C13.5645 22.05 14.5978 22.15 15.5645 22.35C16.5645 22.55 17.5311 22.8333 18.4645 23.2V21.65C18.4645 20.15 18.0311 18.9333 17.1645 18C16.3311 17.0667 15.1811 16.6 13.7145 16.6C12.6145 16.6 11.6145 16.8833 10.7145 17.45C9.81445 17.9833 9.18112 18.75 8.81445 19.75L2.56445 18.5C2.93112 16.9667 3.64779 15.6333 4.71445 14.5C5.81445 13.3333 7.14779 12.4333 8.71445 11.8C10.2811 11.1667 11.9811 10.85 13.8145 10.85C15.5145 10.85 17.0645 11.1167 18.4645 11.65C19.8645 12.1833 21.0645 12.95 22.0645 13.95C23.0978 14.95 23.8811 16.1333 24.4145 17.5C24.9811 18.8333 25.2645 20.3333 25.2645 22V38H19.0145L18.8145 34.9C18.1145 36.0333 17.0978 36.9667 15.7645 37.7C14.4311 38.4 12.8478 38.75 11.0145 38.75ZM8.51445 30.15C8.51445 31.0833 8.89779 31.85 9.66445 32.45C10.4311 33.05 11.4478 33.35 12.7145 33.35C13.8145 33.35 14.7978 33.1167 15.6645 32.65C16.5311 32.1833 17.2145 31.55 17.7145 30.75C18.2145 29.9167 18.4645 29 18.4645 28V27.75C17.7311 27.45 16.9478 27.2167 16.1145 27.05C15.2811 26.85 14.4478 26.75 13.6145 26.75C12.0478 26.75 10.7978 27.0667 9.86445 27.7C8.96445 28.3 8.51445 29.1167 8.51445 30.15ZM30.843 38V0.699997H37.843V14.95C38.7763 13.6833 39.943 12.6833 41.343 11.95C42.7763 11.2167 44.343 10.85 46.043 10.85C47.7763 10.85 49.3763 11.2 50.843 11.9C52.3096 12.6 53.593 13.5833 54.693 14.85C55.793 16.0833 56.643 17.5333 57.243 19.2C57.8763 20.8667 58.193 22.6833 58.193 24.65C58.193 26.65 57.8763 28.5 57.243 30.2C56.6096 31.9 55.7263 33.4 54.593 34.7C53.4596 35.9667 52.1263 36.9667 50.593 37.7C49.0596 38.4 47.4096 38.75 45.643 38.75C43.9096 38.75 42.343 38.3833 40.943 37.65C39.543 36.9167 38.393 35.8833 37.493 34.55L37.293 38H30.843ZM44.393 32.45C45.6596 32.45 46.793 32.1167 47.793 31.45C48.793 30.7833 49.5763 29.8833 50.143 28.75C50.743 27.5833 51.043 26.2667 51.043 24.8C51.043 23.3333 50.743 22.0333 50.143 20.9C49.5763 19.7333 48.793 18.8167 47.793 18.15C46.793 17.4833 45.6596 17.15 44.393 17.15C43.1263 17.15 41.993 17.4833 40.993 18.15C39.993 18.8167 39.193 19.7333 38.593 20.9C38.0263 22.0333 37.743 23.3333 37.743 24.8C37.743 26.2667 38.0263 27.5833 38.593 28.75C39.193 29.8833 39.993 30.7833 40.993 31.45C41.993 32.1167 43.1263 32.45 44.393 32.45ZM75.7207 38.75C73.754 38.75 71.9374 38.4 70.2707 37.7C68.604 37 67.154 36.0333 65.9207 34.8C64.6874 33.5333 63.7207 32.05 63.0207 30.35C62.354 28.65 62.0207 26.8 62.0207 24.8C62.0207 22.8 62.3707 20.9667 63.0707 19.3C63.7707 17.6 64.7374 16.1167 65.9707 14.85C67.2374 13.5833 68.704 12.6 70.3707 11.9C72.0707 11.2 73.9207 10.85 75.9207 10.85C77.8874 10.85 79.704 11.2 81.3707 11.9C83.0374 12.6 84.4874 13.5833 85.7207 14.85C86.954 16.0833 87.904 17.55 88.5707 19.25C89.2707 20.9167 89.6207 22.75 89.6207 24.75C89.6207 26.75 89.2707 28.6 88.5707 30.3C87.8707 32 86.8874 33.4833 85.6207 34.75C84.3874 36.0167 82.9207 37 81.2207 37.7C79.554 38.4 77.7207 38.75 75.7207 38.75ZM75.8207 32.45C77.0874 32.45 78.2207 32.1167 79.2207 31.45C80.2207 30.7833 81.004 29.8833 81.5707 28.75C82.1707 27.5833 82.4707 26.2667 82.4707 24.8C82.4707 23.3333 82.1707 22.0333 81.5707 20.9C81.004 19.7333 80.2207 18.8167 79.2207 18.15C78.2207 17.4833 77.0874 17.15 75.8207 17.15C74.554 17.15 73.4207 17.4833 72.4207 18.15C71.4207 18.8167 70.6207 19.7333 70.0207 20.9C69.454 22.0333 69.1707 23.3333 69.1707 24.8C69.1707 26.2667 69.454 27.5833 70.0207 28.75C70.6207 29.8833 71.4207 30.7833 72.4207 31.45C73.4207 32.1167 74.554 32.45 75.8207 32.45ZM106.122 38.75C103.722 38.75 101.622 38.25 99.8219 37.25C98.0552 36.2167 96.6719 34.7667 95.6719 32.9C94.7052 31 94.2219 28.7667 94.2219 26.2V11.6H101.222V26.35C101.222 28.25 101.672 29.75 102.572 30.85C103.472 31.9167 104.689 32.45 106.222 32.45C107.755 32.45 108.972 31.9167 109.872 30.85C110.772 29.75 111.222 28.25 111.222 26.35V11.6H118.222V26.2C118.222 28.1 117.939 29.8167 117.372 31.35C116.805 32.8833 115.989 34.2 114.922 35.3C113.855 36.4 112.572 37.25 111.072 37.85C109.605 38.45 107.955 38.75 106.122 38.75ZM135.262 38.75C133.428 38.75 131.845 38.4 130.512 37.7C129.212 36.9667 128.195 35.9167 127.462 34.55C126.762 33.1833 126.412 31.5167 126.412 29.55V17.25H121.912V11.6H126.412V2.6H133.412V11.6H140.612V17.25H133.412V28.7C133.412 29.9667 133.678 30.95 134.212 31.65C134.745 32.3167 135.562 32.65 136.662 32.65C137.228 32.65 137.828 32.5667 138.462 32.4C139.128 32.2333 139.762 32.0167 140.362 31.75L141.612 37C140.745 37.5333 139.778 37.95 138.712 38.25C137.645 38.5833 136.495 38.75 135.262 38.75Z" fill="#212D40"/>
<path d="M56.9624 54.8L52.7024 69H50.9824L47.5624 56.92L44.1624 69H42.4224L38.1624 54.8H39.9824L43.3224 66.84L46.7224 54.8H48.4424L51.8824 66.84L55.2224 54.8H56.9624ZM62.664 69.3C61.904 69.3 61.204 69.1667 60.564 68.9C59.9373 68.6333 59.3907 68.26 58.924 67.78C58.4573 67.2867 58.0973 66.7133 57.844 66.06C57.5907 65.3933 57.464 64.66 57.464 63.86C57.464 63.0733 57.584 62.3533 57.824 61.7C58.0773 61.0333 58.424 60.4533 58.864 59.96C59.3173 59.4667 59.844 59.0867 60.444 58.82C61.044 58.54 61.6973 58.4 62.404 58.4C63.084 58.4 63.7107 58.5267 64.284 58.78C64.8707 59.0333 65.3773 59.3867 65.804 59.84C66.2307 60.2933 66.5573 60.8333 66.784 61.46C67.024 62.0867 67.144 62.7667 67.144 63.5V64.16H59.124C59.1773 64.9067 59.3507 65.56 59.644 66.12C59.9507 66.68 60.3573 67.1133 60.864 67.42C61.3707 67.7267 61.9573 67.88 62.624 67.88C63.2773 67.88 63.844 67.7467 64.324 67.48C64.8173 67.2 65.2373 66.7933 65.584 66.26L66.944 66.88C66.6773 67.3867 66.3307 67.82 65.904 68.18C65.4773 68.54 64.984 68.8133 64.424 69C63.8773 69.2 63.2907 69.3 62.664 69.3ZM62.404 59.76C61.8573 59.76 61.3573 59.8933 60.904 60.16C60.464 60.4267 60.0907 60.8 59.784 61.28C59.4907 61.7467 59.2973 62.2933 59.204 62.92H65.464C65.4107 62.2933 65.244 61.7467 64.964 61.28C64.684 60.8 64.324 60.4267 63.884 60.16C63.444 59.8933 62.9507 59.76 62.404 59.76ZM69.4293 69V54.16H71.0293V60.5C71.4026 59.8467 71.9093 59.3333 72.5493 58.96C73.2026 58.5733 73.936 58.38 74.7493 58.38C75.4293 58.38 76.0626 58.52 76.6493 58.8C77.236 59.0667 77.7493 59.4467 78.1893 59.94C78.6293 60.4333 78.9693 61.0133 79.2093 61.68C79.4626 62.3333 79.5893 63.0467 79.5893 63.82C79.5893 64.5933 79.4626 65.3133 79.2093 65.98C78.9693 66.6467 78.6226 67.2267 78.1693 67.72C77.7293 68.2133 77.2093 68.6 76.6093 68.88C76.0093 69.16 75.3626 69.3 74.6693 69.3C73.8693 69.3 73.1426 69.1067 72.4893 68.72C71.836 68.3333 71.3226 67.8 70.9493 67.12L70.8693 69H69.4293ZM74.4693 67.84C74.976 67.84 75.436 67.74 75.8493 67.54C76.276 67.34 76.6426 67.0667 76.9493 66.72C77.2693 66.36 77.516 65.94 77.6893 65.46C77.8626 64.9667 77.9493 64.4267 77.9493 63.84C77.9493 63.2533 77.8626 62.72 77.6893 62.24C77.516 61.7467 77.2693 61.3267 76.9493 60.98C76.6426 60.62 76.276 60.34 75.8493 60.14C75.436 59.94 74.976 59.84 74.4693 59.84C73.9626 59.84 73.496 59.94 73.0693 60.14C72.656 60.34 72.2893 60.62 71.9693 60.98C71.6626 61.3267 71.4226 61.7467 71.2493 62.24C71.076 62.72 70.9893 63.2533 70.9893 63.84C70.9893 64.4267 71.076 64.9667 71.2493 65.46C71.4226 65.94 71.6626 66.36 71.9693 66.72C72.2893 67.0667 72.656 67.34 73.0693 67.54C73.496 67.74 73.9626 67.84 74.4693 67.84ZM85.1307 69.3C84.5307 69.3 83.964 69.2 83.4307 69C82.9107 68.8 82.4574 68.5133 82.0707 68.14C81.684 67.7667 81.3907 67.3267 81.1907 66.82L82.6307 66.3C82.8974 66.8067 83.244 67.2 83.6707 67.48C84.0974 67.76 84.584 67.9 85.1307 67.9C85.5707 67.9 85.9574 67.8267 86.2907 67.68C86.624 67.5333 86.884 67.3333 87.0707 67.08C87.2574 66.8133 87.3507 66.52 87.3507 66.2C87.3507 65.3333 86.724 64.7733 85.4707 64.52L84.6907 64.36C83.5974 64.1467 82.7907 63.8 82.2707 63.32C81.7507 62.8267 81.4907 62.2067 81.4907 61.46C81.4907 60.86 81.644 60.3267 81.9507 59.86C82.2574 59.3933 82.684 59.0333 83.2307 58.78C83.7907 58.5133 84.424 58.38 85.1307 58.38C85.7174 58.38 86.2574 58.48 86.7507 58.68C87.244 58.8667 87.664 59.1467 88.0107 59.52C88.3707 59.8933 88.644 60.3333 88.8307 60.84L87.3907 61.32C87.1774 60.8267 86.8707 60.4467 86.4707 60.18C86.084 59.9 85.6307 59.76 85.1107 59.76C84.7107 59.76 84.3574 59.8267 84.0507 59.96C83.7574 60.0933 83.524 60.2733 83.3507 60.5C83.1774 60.7267 83.0907 60.9933 83.0907 61.3C83.0907 61.7267 83.2507 62.0667 83.5707 62.32C83.904 62.5733 84.4374 62.7733 85.1707 62.92L85.9507 63.08C86.9374 63.28 87.6907 63.6333 88.2107 64.14C88.7307 64.6333 88.9907 65.2667 88.9907 66.04C88.9907 66.52 88.8907 66.96 88.6907 67.36C88.504 67.7467 88.2374 68.0867 87.8907 68.38C87.5574 68.6733 87.1507 68.9 86.6707 69.06C86.204 69.22 85.6907 69.3 85.1307 69.3ZM93.009 55.66C93.009 55.86 92.9557 56.0467 92.849 56.22C92.7557 56.38 92.6223 56.5133 92.449 56.62C92.289 56.7133 92.109 56.76 91.909 56.76C91.709 56.76 91.5223 56.7133 91.349 56.62C91.189 56.5133 91.0557 56.38 90.949 56.22C90.8557 56.0467 90.809 55.86 90.809 55.66C90.809 55.46 90.8557 55.28 90.949 55.12C91.0557 54.9467 91.189 54.8133 91.349 54.72C91.5223 54.6133 91.709 54.56 91.909 54.56C92.109 54.56 92.289 54.6133 92.449 54.72C92.6223 54.8133 92.7557 54.9467 92.849 55.12C92.9557 55.28 93.009 55.46 93.009 55.66ZM91.109 69V58.68H92.709V69H91.109ZM99.3635 69.3C98.7368 69.3 98.1968 69.1733 97.7435 68.92C97.2902 68.6667 96.9368 68.2933 96.6835 67.8C96.4435 67.3067 96.3235 66.7067 96.3235 66V60.04H94.4235V58.68H96.3235V55.22H97.9235V58.68H101.164V60.04H97.9235V65.92C97.9235 66.5333 98.0502 67.0133 98.3035 67.36C98.5702 67.6933 98.9702 67.86 99.5035 67.86C99.7835 67.86 100.064 67.82 100.344 67.74C100.637 67.6467 100.897 67.5267 101.124 67.38L101.604 68.62C101.324 68.82 100.997 68.98 100.624 69.1C100.25 69.2333 99.8302 69.3 99.3635 69.3ZM108.152 69.3C107.392 69.3 106.692 69.1667 106.052 68.9C105.426 68.6333 104.879 68.26 104.412 67.78C103.946 67.2867 103.586 66.7133 103.332 66.06C103.079 65.3933 102.952 64.66 102.952 63.86C102.952 63.0733 103.072 62.3533 103.312 61.7C103.566 61.0333 103.912 60.4533 104.352 59.96C104.806 59.4667 105.332 59.0867 105.932 58.82C106.532 58.54 107.186 58.4 107.892 58.4C108.572 58.4 109.199 58.5267 109.772 58.78C110.359 59.0333 110.866 59.3867 111.292 59.84C111.719 60.2933 112.046 60.8333 112.272 61.46C112.512 62.0867 112.632 62.7667 112.632 63.5V64.16H104.612C104.666 64.9067 104.839 65.56 105.132 66.12C105.439 66.68 105.846 67.1133 106.352 67.42C106.859 67.7267 107.446 67.88 108.112 67.88C108.766 67.88 109.332 67.7467 109.812 67.48C110.306 67.2 110.726 66.7933 111.072 66.26L112.432 66.88C112.166 67.3867 111.819 67.82 111.392 68.18C110.966 68.54 110.472 68.8133 109.912 69C109.366 69.2 108.779 69.3 108.152 69.3ZM107.892 59.76C107.346 59.76 106.846 59.8933 106.392 60.16C105.952 60.4267 105.579 60.8 105.272 61.28C104.979 61.7467 104.786 62.2933 104.692 62.92H110.952C110.899 62.2933 110.732 61.7467 110.452 61.28C110.172 60.8 109.812 60.4267 109.372 60.16C108.932 59.8933 108.439 59.76 107.892 59.76Z" fill="white"/>
</svg>
