<svg width="108" height="74" viewBox="0 0 108 74" fill="none" xmlns="http://www.w3.org/2000/svg">
<path d="M3.08906 38V0.699997H10.0891V14.95C11.0224 13.6833 12.1891 12.6833 13.5891 11.95C15.0224 11.2167 16.5891 10.85 18.2891 10.85C20.0224 10.85 21.6224 11.2 23.0891 11.9C24.5557 12.6 25.8391 13.5833 26.9391 14.85C28.0391 16.0833 28.8891 17.5333 29.4891 19.2C30.1224 20.8667 30.4391 22.6833 30.4391 24.65C30.4391 26.65 30.1224 28.5 29.4891 30.2C28.8557 31.9 27.9724 33.4 26.8391 34.7C25.7057 35.9667 24.3724 36.9667 22.8391 37.7C21.3057 38.4 19.6557 38.75 17.8891 38.75C16.1557 38.75 14.5891 38.3833 13.1891 37.65C11.7891 36.9167 10.6391 35.8833 9.73906 34.55L9.53906 38H3.08906ZM16.6391 32.45C17.9057 32.45 19.0391 32.1167 20.0391 31.45C21.0391 30.7833 21.8224 29.8833 22.3891 28.75C22.9891 27.5833 23.2891 26.2667 23.2891 24.8C23.2891 23.3333 22.9891 22.0333 22.3891 20.9C21.8224 19.7333 21.0391 18.8167 20.0391 18.15C19.0391 17.4833 17.9057 17.15 16.6391 17.15C15.3724 17.15 14.2391 17.4833 13.2391 18.15C12.2391 18.8167 11.4391 19.7333 10.8391 20.9C10.2724 22.0333 9.98906 23.3333 9.98906 24.8C9.98906 26.2667 10.2724 27.5833 10.8391 28.75C11.4391 29.8833 12.2391 30.7833 13.2391 31.45C14.2391 32.1167 15.3724 32.45 16.6391 32.45ZM35.0227 38V0.699997H42.0227V38H35.0227ZM60.3203 38.75C58.3536 38.75 56.537 38.4 54.8703 37.7C53.2036 37 51.7536 36.0333 50.5203 34.8C49.287 33.5333 48.3203 32.05 47.6203 30.35C46.9536 28.65 46.6203 26.8 46.6203 24.8C46.6203 22.8 46.9703 20.9667 47.6703 19.3C48.3703 17.6 49.337 16.1167 50.5703 14.85C51.837 13.5833 53.3036 12.6 54.9703 11.9C56.6703 11.2 58.5203 10.85 60.5203 10.85C62.487 10.85 64.3036 11.2 65.9703 11.9C67.637 12.6 69.087 13.5833 70.3203 14.85C71.5536 16.0833 72.5036 17.55 73.1703 19.25C73.8703 20.9167 74.2203 22.75 74.2203 24.75C74.2203 26.75 73.8703 28.6 73.1703 30.3C72.4703 32 71.487 33.4833 70.2203 34.75C68.987 36.0167 67.5203 37 65.8203 37.7C64.1536 38.4 62.3203 38.75 60.3203 38.75ZM60.4203 32.45C61.687 32.45 62.8203 32.1167 63.8203 31.45C64.8203 30.7833 65.6036 29.8833 66.1703 28.75C66.7703 27.5833 67.0703 26.2667 67.0703 24.8C67.0703 23.3333 66.7703 22.0333 66.1703 20.9C65.6036 19.7333 64.8203 18.8167 63.8203 18.15C62.8203 17.4833 61.687 17.15 60.4203 17.15C59.1536 17.15 58.0203 17.4833 57.0203 18.15C56.0203 18.8167 55.2203 19.7333 54.6203 20.9C54.0536 22.0333 53.7703 23.3333 53.7703 24.8C53.7703 26.2667 54.0536 27.5833 54.6203 28.75C55.2203 29.8833 56.0203 30.7833 57.0203 31.45C58.0203 32.1167 59.1536 32.45 60.4203 32.45ZM89.9156 37.25C88.249 37.25 86.6823 36.9167 85.2156 36.25C83.7823 35.5833 82.5323 34.6667 81.4656 33.5C80.399 32.3 79.5656 30.9167 78.9656 29.35C78.3656 27.75 78.0656 26.0333 78.0656 24.2C78.0656 22.3 78.3656 20.55 78.9656 18.95C79.599 17.3167 80.4656 15.9 81.5656 14.7C82.699 13.5 83.999 12.5667 85.4656 11.9C86.9656 11.2 88.5823 10.85 90.3156 10.85C92.0156 10.85 93.549 11.2 94.9156 11.9C96.2823 12.5667 97.4156 13.55 98.3156 14.85L98.4656 11.6H104.916V34.85C104.916 36.8833 104.582 38.7333 103.916 40.4C103.282 42.0667 102.366 43.5 101.166 44.7C99.9656 45.9 98.5323 46.8167 96.8656 47.45C95.2323 48.1167 93.4156 48.45 91.4156 48.45C89.449 48.45 87.6823 48.1333 86.1156 47.5C84.549 46.9 83.1823 46.05 82.0156 44.95C80.849 43.85 79.9323 42.5667 79.2656 41.1L85.9656 39.45C86.5656 40.4167 87.3323 41.1667 88.2656 41.7C89.2323 42.2667 90.3156 42.55 91.5156 42.55C92.8156 42.55 93.9323 42.25 94.8656 41.65C95.8323 41.0833 96.5823 40.2667 97.1156 39.2C97.649 38.1667 97.9156 36.95 97.9156 35.55V33.4C97.0156 34.6 95.8656 35.55 94.4656 36.25C93.099 36.9167 91.5823 37.25 89.9156 37.25ZM91.6156 31.05C92.849 31.05 93.9323 30.75 94.8656 30.15C95.8323 29.5167 96.599 28.6833 97.1656 27.65C97.7323 26.5833 98.0156 25.3833 98.0156 24.05C98.0156 22.7167 97.7323 21.5333 97.1656 20.5C96.599 19.4333 95.8323 18.6 94.8656 18C93.9323 17.3667 92.849 17.05 91.6156 17.05C90.3823 17.05 89.2823 17.3667 88.3156 18C87.3823 18.6 86.6323 19.4333 86.0656 20.5C85.499 21.5333 85.2156 22.7167 85.2156 24.05C85.2156 25.3833 85.499 26.5833 86.0656 27.65C86.6323 28.6833 87.3823 29.5167 88.3156 30.15C89.2823 30.75 90.3823 31.05 91.6156 31.05Z" fill="#212D40"/>
<path d="M16.1268 69.3C15.5268 69.3 14.9601 69.2 14.4268 69C13.9068 68.8 13.4535 68.5133 13.0668 68.14C12.6801 67.7667 12.3868 67.3267 12.1868 66.82L13.6268 66.3C13.8935 66.8067 14.2401 67.2 14.6668 67.48C15.0935 67.76 15.5801 67.9 16.1268 67.9C16.5668 67.9 16.9535 67.8267 17.2868 67.68C17.6201 67.5333 17.8801 67.3333 18.0668 67.08C18.2535 66.8133 18.3468 66.52 18.3468 66.2C18.3468 65.3333 17.7201 64.7733 16.4668 64.52L15.6868 64.36C14.5935 64.1467 13.7868 63.8 13.2668 63.32C12.7468 62.8267 12.4868 62.2067 12.4868 61.46C12.4868 60.86 12.6401 60.3267 12.9468 59.86C13.2535 59.3933 13.6801 59.0333 14.2268 58.78C14.7868 58.5133 15.4201 58.38 16.1268 58.38C16.7135 58.38 17.2535 58.48 17.7468 58.68C18.2401 58.8667 18.6601 59.1467 19.0068 59.52C19.3668 59.8933 19.6401 60.3333 19.8268 60.84L18.3868 61.32C18.1735 60.8267 17.8668 60.4467 17.4668 60.18C17.0801 59.9 16.6268 59.76 16.1068 59.76C15.7068 59.76 15.3535 59.8267 15.0468 59.96C14.7535 60.0933 14.5201 60.2733 14.3468 60.5C14.1735 60.7267 14.0868 60.9933 14.0868 61.3C14.0868 61.7267 14.2468 62.0667 14.5668 62.32C14.9001 62.5733 15.4335 62.7733 16.1668 62.92L16.9468 63.08C17.9335 63.28 18.6868 63.6333 19.2068 64.14C19.7268 64.6333 19.9868 65.2667 19.9868 66.04C19.9868 66.52 19.8868 66.96 19.6868 67.36C19.5001 67.7467 19.2335 68.0867 18.8868 68.38C18.5535 68.6733 18.1468 68.9 17.6668 69.06C17.2001 69.22 16.6868 69.3 16.1268 69.3ZM26.6851 69.3C25.9517 69.3 25.2717 69.1667 24.6451 68.9C24.0317 68.62 23.4917 68.24 23.0251 67.76C22.5717 67.2667 22.2184 66.6867 21.9651 66.02C21.7117 65.3533 21.5851 64.6267 21.5851 63.84C21.5851 63.0533 21.7117 62.3267 21.9651 61.66C22.2317 60.9933 22.5917 60.42 23.0451 59.94C23.5117 59.4467 24.0584 59.0667 24.6851 58.8C25.3117 58.52 25.9917 58.38 26.7251 58.38C27.4584 58.38 28.1317 58.52 28.7451 58.8C29.3717 59.0667 29.9117 59.4467 30.3651 59.94C30.8317 60.42 31.1917 60.9933 31.4451 61.66C31.6984 62.3267 31.8251 63.0533 31.8251 63.84C31.8251 64.6267 31.6917 65.3533 31.4251 66.02C31.1717 66.6867 30.8117 67.2667 30.3451 67.76C29.8917 68.24 29.3517 68.62 28.7251 68.9C28.0984 69.1667 27.4184 69.3 26.6851 69.3ZM26.7051 67.84C27.2117 67.84 27.6717 67.74 28.0851 67.54C28.5117 67.34 28.8784 67.0667 29.1851 66.72C29.5051 66.36 29.7517 65.94 29.9251 65.46C30.0984 64.9667 30.1851 64.4267 30.1851 63.84C30.1851 63.2533 30.0984 62.72 29.9251 62.24C29.7517 61.7467 29.5051 61.3267 29.1851 60.98C28.8784 60.62 28.5117 60.34 28.0851 60.14C27.6717 59.94 27.2117 59.84 26.7051 59.84C26.1984 59.84 25.7317 59.94 25.3051 60.14C24.8917 60.34 24.5251 60.62 24.2051 60.98C23.8984 61.3267 23.6584 61.7467 23.4851 62.24C23.3117 62.72 23.2251 63.2533 23.2251 63.84C23.2251 64.4267 23.3117 64.9667 23.4851 65.46C23.6584 65.94 23.8984 66.36 24.2051 66.72C24.5251 67.0667 24.8917 67.34 25.3051 67.54C25.7317 67.74 26.1984 67.84 26.7051 67.84ZM38.6349 69.3C37.9283 69.3 37.2749 69.1667 36.6749 68.9C36.0749 68.6333 35.5483 68.26 35.0949 67.78C34.6416 67.2867 34.2883 66.7133 34.0349 66.06C33.7949 65.4067 33.6749 64.6933 33.6749 63.92C33.6749 63.1467 33.8016 62.4267 34.0549 61.76C34.3083 61.08 34.6616 60.4867 35.1149 59.98C35.5683 59.4733 36.1016 59.08 36.7149 58.8C37.3283 58.52 37.9949 58.38 38.7149 58.38C39.3816 58.38 39.9816 58.5 40.5149 58.74C41.0616 58.98 41.5283 59.3067 41.9149 59.72C42.3149 60.1333 42.6216 60.6067 42.8349 61.14L41.3749 61.64C41.0816 61.08 40.7016 60.64 40.2349 60.32C39.7683 60 39.2416 59.84 38.6549 59.84C38.1749 59.84 37.7349 59.9467 37.3349 60.16C36.9349 60.36 36.5816 60.64 36.2749 61C35.9683 61.36 35.7283 61.7933 35.5549 62.3C35.3949 62.7933 35.3149 63.3267 35.3149 63.9C35.3149 64.4733 35.3949 65 35.5549 65.48C35.7283 65.96 35.9616 66.38 36.2549 66.74C36.5483 67.0867 36.8949 67.36 37.2949 67.56C37.7083 67.7467 38.1549 67.84 38.6349 67.84C39.2483 67.84 39.8083 67.6867 40.3149 67.38C40.8349 67.06 41.2283 66.62 41.4949 66.06L42.9549 66.56C42.7416 67.12 42.4149 67.6067 41.9749 68.02C41.5483 68.42 41.0416 68.7333 40.4549 68.96C39.8816 69.1867 39.2749 69.3 38.6349 69.3ZM47.0129 55.66C47.0129 55.86 46.9596 56.0467 46.8529 56.22C46.7596 56.38 46.6262 56.5133 46.4529 56.62C46.2929 56.7133 46.1129 56.76 45.9129 56.76C45.7129 56.76 45.5262 56.7133 45.3529 56.62C45.1929 56.5133 45.0596 56.38 44.9529 56.22C44.8596 56.0467 44.8129 55.86 44.8129 55.66C44.8129 55.46 44.8596 55.28 44.9529 55.12C45.0596 54.9467 45.1929 54.8133 45.3529 54.72C45.5262 54.6133 45.7129 54.56 45.9129 54.56C46.1129 54.56 46.2929 54.6133 46.4529 54.72C46.6262 54.8133 46.7596 54.9467 46.8529 55.12C46.9596 55.28 47.0129 55.46 47.0129 55.66ZM45.1129 69V58.68H46.7129V69H45.1129ZM52.7074 69.3C51.9874 69.3 51.3474 69.1667 50.7874 68.9C50.2274 68.62 49.7874 68.24 49.4674 67.76C49.1608 67.28 49.0074 66.7267 49.0074 66.1C49.0074 65.42 49.1808 64.8333 49.5274 64.34C49.8874 63.8467 50.3874 63.4667 51.0274 63.2C51.6674 62.92 52.4141 62.78 53.2674 62.78C53.7474 62.78 54.2341 62.8333 54.7274 62.94C55.2208 63.0467 55.6608 63.1867 56.0474 63.36V62.6C56.0474 62.04 55.9341 61.5533 55.7074 61.14C55.4941 60.7133 55.1941 60.3867 54.8074 60.16C54.4208 59.92 53.9674 59.8 53.4474 59.8C52.8208 59.8 52.2741 59.9467 51.8074 60.24C51.3541 60.5333 51.0141 60.9467 50.7874 61.48L49.3874 61C49.5741 60.4667 49.8608 60.0067 50.2474 59.62C50.6474 59.2333 51.1208 58.9333 51.6674 58.72C52.2274 58.5067 52.8274 58.4 53.4674 58.4C54.2941 58.4 55.0141 58.58 55.6274 58.94C56.2541 59.2867 56.7341 59.78 57.0674 60.42C57.4141 61.0467 57.5874 61.7867 57.5874 62.64V69H56.1874L56.0874 67.4C55.7941 67.9733 55.3474 68.4333 54.7474 68.78C54.1608 69.1267 53.4808 69.3 52.7074 69.3ZM50.6274 66.04C50.6274 66.4267 50.7274 66.7667 50.9274 67.06C51.1274 67.34 51.4074 67.56 51.7674 67.72C52.1274 67.88 52.5408 67.96 53.0074 67.96C53.5808 67.96 54.0941 67.8333 54.5474 67.58C55.0141 67.3133 55.3808 66.96 55.6474 66.52C55.9141 66.0667 56.0474 65.5533 56.0474 64.98V64.6C55.6074 64.4267 55.1608 64.2933 54.7074 64.2C54.2674 64.0933 53.8474 64.04 53.4474 64.04C52.5674 64.04 51.8741 64.22 51.3674 64.58C50.8741 64.94 50.6274 65.4267 50.6274 66.04ZM60.3082 69V54.16H61.9082V69H60.3082ZM73.3977 69.3C72.7177 69.3 72.0844 69.1667 71.4977 68.9C70.9111 68.62 70.3977 68.2333 69.9577 67.74C69.5177 67.2467 69.1711 66.6733 68.9177 66.02C68.6777 65.3533 68.5577 64.6333 68.5577 63.86C68.5577 63.0867 68.6777 62.3667 68.9177 61.7C69.1711 61.0333 69.5177 60.4533 69.9577 59.96C70.4111 59.4667 70.9377 59.08 71.5377 58.8C72.1377 58.52 72.7844 58.38 73.4777 58.38C74.2644 58.38 74.9711 58.56 75.5977 58.92C76.2377 59.28 76.7444 59.7867 77.1177 60.44V54.16H78.7177V69H77.2777L77.1977 67.04C76.8244 67.7467 76.3044 68.3 75.6377 68.7C74.9844 69.1 74.2377 69.3 73.3977 69.3ZM73.6777 67.84C74.1844 67.84 74.6444 67.74 75.0577 67.54C75.4844 67.34 75.8511 67.0667 76.1577 66.72C76.4777 66.36 76.7244 65.94 76.8977 65.46C77.0711 64.9667 77.1577 64.4267 77.1577 63.84C77.1577 63.2533 77.0711 62.72 76.8977 62.24C76.7244 61.7467 76.4777 61.3267 76.1577 60.98C75.8511 60.62 75.4844 60.34 75.0577 60.14C74.6444 59.94 74.1844 59.84 73.6777 59.84C73.1711 59.84 72.7044 59.94 72.2777 60.14C71.8644 60.34 71.4977 60.62 71.1777 60.98C70.8711 61.3267 70.6311 61.7467 70.4577 62.24C70.2844 62.72 70.1977 63.2533 70.1977 63.84C70.1977 64.4267 70.2844 64.9667 70.4577 65.46C70.6311 65.94 70.8711 66.36 71.1777 66.72C71.4977 67.0667 71.8644 67.34 72.2777 67.54C72.7044 67.74 73.1711 67.84 73.6777 67.84ZM86.0991 69.3C85.3658 69.3 84.6858 69.1667 84.0591 68.9C83.4458 68.62 82.9058 68.24 82.4391 67.76C81.9858 67.2667 81.6325 66.6867 81.3791 66.02C81.1258 65.3533 80.9991 64.6267 80.9991 63.84C80.9991 63.0533 81.1258 62.3267 81.3791 61.66C81.6458 60.9933 82.0058 60.42 82.4591 59.94C82.9258 59.4467 83.4725 59.0667 84.0991 58.8C84.7258 58.52 85.4058 58.38 86.1391 58.38C86.8725 58.38 87.5458 58.52 88.1591 58.8C88.7858 59.0667 89.3258 59.4467 89.7791 59.94C90.2458 60.42 90.6058 60.9933 90.8591 61.66C91.1125 62.3267 91.2391 63.0533 91.2391 63.84C91.2391 64.6267 91.1058 65.3533 90.8391 66.02C90.5858 66.6867 90.2258 67.2667 89.7591 67.76C89.3058 68.24 88.7658 68.62 88.1391 68.9C87.5125 69.1667 86.8325 69.3 86.0991 69.3ZM86.1191 67.84C86.6258 67.84 87.0858 67.74 87.4991 67.54C87.9258 67.34 88.2925 67.0667 88.5991 66.72C88.9191 66.36 89.1658 65.94 89.3391 65.46C89.5125 64.9667 89.5991 64.4267 89.5991 63.84C89.5991 63.2533 89.5125 62.72 89.3391 62.24C89.1658 61.7467 88.9191 61.3267 88.5991 60.98C88.2925 60.62 87.9258 60.34 87.4991 60.14C87.0858 59.94 86.6258 59.84 86.1191 59.84C85.6125 59.84 85.1458 59.94 84.7191 60.14C84.3058 60.34 83.9391 60.62 83.6191 60.98C83.3125 61.3267 83.0725 61.7467 82.8991 62.24C82.7258 62.72 82.6391 63.2533 82.6391 63.84C82.6391 64.4267 82.7258 64.9667 82.8991 65.46C83.0725 65.94 83.3125 66.36 83.6191 66.72C83.9391 67.0667 84.3058 67.34 84.7191 67.54C85.1458 67.74 85.6125 67.84 86.1191 67.84ZM97.869 68.9C97.189 68.9 96.5557 68.7667 95.969 68.5C95.3957 68.2333 94.889 67.8667 94.449 67.4C94.0223 66.92 93.689 66.36 93.449 65.72C93.209 65.08 93.089 64.3933 93.089 63.66C93.089 62.9133 93.209 62.22 93.449 61.58C93.7023 60.94 94.049 60.38 94.489 59.9C94.929 59.42 95.4423 59.0467 96.029 58.78C96.629 58.5133 97.269 58.38 97.949 58.38C98.7357 58.38 99.449 58.5667 100.089 58.94C100.742 59.3133 101.249 59.8267 101.609 60.48L101.689 58.68H103.129V68.12C103.129 68.9067 103.009 69.62 102.769 70.26C102.529 70.9133 102.189 71.4733 101.749 71.94C101.309 72.4067 100.782 72.76 100.169 73C99.5557 73.2533 98.8757 73.38 98.129 73.38C97.4757 73.38 96.8623 73.28 96.289 73.08C95.7157 72.8933 95.2023 72.6133 94.749 72.24C94.309 71.88 93.9423 71.4467 93.649 70.94L94.989 70.26C95.3757 70.82 95.829 71.2467 96.349 71.54C96.8823 71.8467 97.4757 72 98.129 72C98.8223 72 99.4223 71.84 99.929 71.52C100.449 71.2133 100.842 70.7733 101.109 70.2C101.389 69.6267 101.529 68.9533 101.529 68.18V66.86C101.156 67.5 100.649 68 100.009 68.36C99.369 68.72 98.6557 68.9 97.869 68.9ZM98.149 67.44C98.6423 67.44 99.0957 67.3467 99.509 67.16C99.9357 66.9733 100.302 66.7133 100.609 66.38C100.916 66.0333 101.149 65.6267 101.309 65.16C101.482 64.6933 101.569 64.1867 101.569 63.64C101.569 63.0933 101.482 62.5867 101.309 62.12C101.149 61.6533 100.916 61.2533 100.609 60.92C100.302 60.5733 99.9357 60.3067 99.509 60.12C99.0957 59.9333 98.6423 59.84 98.149 59.84C97.6557 59.84 97.1957 59.9333 96.769 60.12C96.3557 60.3067 95.9957 60.5733 95.689 60.92C95.3823 61.2533 95.1423 61.6533 94.969 62.12C94.809 62.5867 94.729 63.0933 94.729 63.64C94.729 64.1867 94.809 64.6933 94.969 65.16C95.1423 65.6267 95.3823 66.0333 95.689 66.38C95.9957 66.7133 96.3557 66.9733 96.769 67.16C97.1957 67.3467 97.6557 67.44 98.149 67.44Z" fill="white"/>
</svg>
