<svg width="131" height="70" viewBox="0 0 131 70" fill="none" xmlns="http://www.w3.org/2000/svg">
<path d="M10.0891 38V0.699997H17.0891V14.95C18.0224 13.6833 19.1891 12.6833 20.5891 11.95C22.0224 11.2167 23.5891 10.85 25.2891 10.85C27.0224 10.85 28.6224 11.2 30.0891 11.9C31.5557 12.6 32.8391 13.5833 33.9391 14.85C35.0391 16.0833 35.8891 17.5333 36.4891 19.2C37.1224 20.8667 37.4391 22.6833 37.4391 24.65C37.4391 26.65 37.1224 28.5 36.4891 30.2C35.8557 31.9 34.9724 33.4 33.8391 34.7C32.7057 35.9667 31.3724 36.9667 29.8391 37.7C28.3057 38.4 26.6557 38.75 24.8891 38.75C23.1557 38.75 21.5891 38.3833 20.1891 37.65C18.7891 36.9167 17.6391 35.8833 16.7391 34.55L16.5391 38H10.0891ZM23.6391 32.45C24.9057 32.45 26.0391 32.1167 27.0391 31.45C28.0391 30.7833 28.8224 29.8833 29.3891 28.75C29.9891 27.5833 30.2891 26.2667 30.2891 24.8C30.2891 23.3333 29.9891 22.0333 29.3891 20.9C28.8224 19.7333 28.0391 18.8167 27.0391 18.15C26.0391 17.4833 24.9057 17.15 23.6391 17.15C22.3724 17.15 21.2391 17.4833 20.2391 18.15C19.2391 18.8167 18.4391 19.7333 17.8391 20.9C17.2724 22.0333 16.9891 23.3333 16.9891 24.8C16.9891 26.2667 17.2724 27.5833 17.8391 28.75C18.4391 29.8833 19.2391 30.7833 20.2391 31.45C21.2391 32.1167 22.3724 32.45 23.6391 32.45ZM42.0227 38V0.699997H49.0227V38H42.0227ZM67.3203 38.75C65.3536 38.75 63.537 38.4 61.8703 37.7C60.2036 37 58.7536 36.0333 57.5203 34.8C56.287 33.5333 55.3203 32.05 54.6203 30.35C53.9536 28.65 53.6203 26.8 53.6203 24.8C53.6203 22.8 53.9703 20.9667 54.6703 19.3C55.3703 17.6 56.337 16.1167 57.5703 14.85C58.837 13.5833 60.3036 12.6 61.9703 11.9C63.6703 11.2 65.5203 10.85 67.5203 10.85C69.487 10.85 71.3036 11.2 72.9703 11.9C74.637 12.6 76.087 13.5833 77.3203 14.85C78.5536 16.0833 79.5036 17.55 80.1703 19.25C80.8703 20.9167 81.2203 22.75 81.2203 24.75C81.2203 26.75 80.8703 28.6 80.1703 30.3C79.4703 32 78.487 33.4833 77.2203 34.75C75.987 36.0167 74.5203 37 72.8203 37.7C71.1536 38.4 69.3203 38.75 67.3203 38.75ZM67.4203 32.45C68.687 32.45 69.8203 32.1167 70.8203 31.45C71.8203 30.7833 72.6036 29.8833 73.1703 28.75C73.7703 27.5833 74.0703 26.2667 74.0703 24.8C74.0703 23.3333 73.7703 22.0333 73.1703 20.9C72.6036 19.7333 71.8203 18.8167 70.8203 18.15C69.8203 17.4833 68.687 17.15 67.4203 17.15C66.1536 17.15 65.0203 17.4833 64.0203 18.15C63.0203 18.8167 62.2203 19.7333 61.6203 20.9C61.0536 22.0333 60.7703 23.3333 60.7703 24.8C60.7703 26.2667 61.0536 27.5833 61.6203 28.75C62.2203 29.8833 63.0203 30.7833 64.0203 31.45C65.0203 32.1167 66.1536 32.45 67.4203 32.45ZM96.9156 37.25C95.249 37.25 93.6823 36.9167 92.2156 36.25C90.7823 35.5833 89.5323 34.6667 88.4656 33.5C87.399 32.3 86.5656 30.9167 85.9656 29.35C85.3656 27.75 85.0656 26.0333 85.0656 24.2C85.0656 22.3 85.3656 20.55 85.9656 18.95C86.599 17.3167 87.4656 15.9 88.5656 14.7C89.699 13.5 90.999 12.5667 92.4656 11.9C93.9656 11.2 95.5823 10.85 97.3156 10.85C99.0156 10.85 100.549 11.2 101.916 11.9C103.282 12.5667 104.416 13.55 105.316 14.85L105.466 11.6H111.916V34.85C111.916 36.8833 111.582 38.7333 110.916 40.4C110.282 42.0667 109.366 43.5 108.166 44.7C106.966 45.9 105.532 46.8167 103.866 47.45C102.232 48.1167 100.416 48.45 98.4156 48.45C96.449 48.45 94.6823 48.1333 93.1156 47.5C91.549 46.9 90.1823 46.05 89.0156 44.95C87.849 43.85 86.9323 42.5667 86.2656 41.1L92.9656 39.45C93.5656 40.4167 94.3323 41.1667 95.2656 41.7C96.2323 42.2667 97.3156 42.55 98.5156 42.55C99.8156 42.55 100.932 42.25 101.866 41.65C102.832 41.0833 103.582 40.2667 104.116 39.2C104.649 38.1667 104.916 36.95 104.916 35.55V33.4C104.016 34.6 102.866 35.55 101.466 36.25C100.099 36.9167 98.5823 37.25 96.9156 37.25ZM98.6156 31.05C99.849 31.05 100.932 30.75 101.866 30.15C102.832 29.5167 103.599 28.6833 104.166 27.65C104.732 26.5833 105.016 25.3833 105.016 24.05C105.016 22.7167 104.732 21.5333 104.166 20.5C103.599 19.4333 102.832 18.6 101.866 18C100.932 17.3667 99.849 17.05 98.6156 17.05C97.3823 17.05 96.2823 17.3667 95.3156 18C94.3823 18.6 93.6323 19.4333 93.0656 20.5C92.499 21.5333 92.2156 22.7167 92.2156 24.05C92.2156 25.3833 92.499 26.5833 93.0656 27.65C93.6323 28.6833 94.3823 29.5167 95.3156 30.15C96.2823 30.75 97.3823 31.05 98.6156 31.05Z" fill="#212D40"/>
<path d="M1.68516 69V58.68H3.12516L3.20516 60.32C3.51182 59.7333 3.95182 59.2667 4.52516 58.92C5.11182 58.56 5.78516 58.38 6.54516 58.38C7.33182 58.38 8.01849 58.5667 8.60516 58.94C9.19182 59.3133 9.63849 59.8467 9.94516 60.54C10.2652 61.22 10.4252 62.0267 10.4252 62.96V69H8.82516V63.06C8.82516 62.0333 8.59849 61.24 8.14516 60.68C7.70516 60.12 7.07182 59.84 6.24516 59.84C5.67182 59.84 5.15849 59.9733 4.70516 60.24C4.26516 60.4933 3.91849 60.8533 3.66516 61.32C3.41182 61.7733 3.28516 62.2933 3.28516 62.88V69H1.68516ZM17.83 69.3C17.07 69.3 16.37 69.1667 15.73 68.9C15.1033 68.6333 14.5567 68.26 14.09 67.78C13.6233 67.2867 13.2633 66.7133 13.01 66.06C12.7567 65.3933 12.63 64.66 12.63 63.86C12.63 63.0733 12.75 62.3533 12.99 61.7C13.2433 61.0333 13.59 60.4533 14.03 59.96C14.4833 59.4667 15.01 59.0867 15.61 58.82C16.21 58.54 16.8633 58.4 17.57 58.4C18.25 58.4 18.8767 58.5267 19.45 58.78C20.0367 59.0333 20.5433 59.3867 20.97 59.84C21.3967 60.2933 21.7233 60.8333 21.95 61.46C22.19 62.0867 22.31 62.7667 22.31 63.5V64.16H14.29C14.3433 64.9067 14.5167 65.56 14.81 66.12C15.1167 66.68 15.5233 67.1133 16.03 67.42C16.5367 67.7267 17.1233 67.88 17.79 67.88C18.4433 67.88 19.01 67.7467 19.49 67.48C19.9833 67.2 20.4033 66.7933 20.75 66.26L22.11 66.88C21.8433 67.3867 21.4967 67.82 21.07 68.18C20.6433 68.54 20.15 68.8133 19.59 69C19.0433 69.2 18.4567 69.3 17.83 69.3ZM17.57 59.76C17.0233 59.76 16.5233 59.8933 16.07 60.16C15.63 60.4267 15.2567 60.8 14.95 61.28C14.6567 61.7467 14.4633 62.2933 14.37 62.92H20.63C20.5767 62.2933 20.41 61.7467 20.13 61.28C19.85 60.8 19.49 60.4267 19.05 60.16C18.61 59.8933 18.1167 59.76 17.57 59.76ZM27.1525 69L23.6725 58.68H25.3525L27.9325 67.04L30.5925 58.68H32.0325L34.6725 67.04L37.2525 58.68H38.8925L35.4125 69H33.8725L31.2925 60.74L28.6925 69H27.1525ZM43.91 69.3C43.31 69.3 42.7433 69.2 42.21 69C41.69 68.8 41.2367 68.5133 40.85 68.14C40.4633 67.7667 40.17 67.3267 39.97 66.82L41.41 66.3C41.6767 66.8067 42.0233 67.2 42.45 67.48C42.8767 67.76 43.3633 67.9 43.91 67.9C44.35 67.9 44.7367 67.8267 45.07 67.68C45.4033 67.5333 45.6633 67.3333 45.85 67.08C46.0367 66.8133 46.13 66.52 46.13 66.2C46.13 65.3333 45.5033 64.7733 44.25 64.52L43.47 64.36C42.3767 64.1467 41.57 63.8 41.05 63.32C40.53 62.8267 40.27 62.2067 40.27 61.46C40.27 60.86 40.4233 60.3267 40.73 59.86C41.0367 59.3933 41.4633 59.0333 42.01 58.78C42.57 58.5133 43.2033 58.38 43.91 58.38C44.4967 58.38 45.0367 58.48 45.53 58.68C46.0233 58.8667 46.4433 59.1467 46.79 59.52C47.15 59.8933 47.4233 60.3333 47.61 60.84L46.17 61.32C45.9567 60.8267 45.65 60.4467 45.25 60.18C44.8633 59.9 44.41 59.76 43.89 59.76C43.49 59.76 43.1367 59.8267 42.83 59.96C42.5367 60.0933 42.3033 60.2733 42.13 60.5C41.9567 60.7267 41.87 60.9933 41.87 61.3C41.87 61.7267 42.03 62.0667 42.35 62.32C42.6833 62.5733 43.2167 62.7733 43.95 62.92L44.73 63.08C45.7167 63.28 46.47 63.6333 46.99 64.14C47.51 64.6333 47.77 65.2667 47.77 66.04C47.77 66.52 47.67 66.96 47.47 67.36C47.2833 67.7467 47.0167 68.0867 46.67 68.38C46.3367 68.6733 45.93 68.9 45.45 69.06C44.9833 69.22 44.47 69.3 43.91 69.3ZM54.2633 69V54.16H55.8633V60.5C56.2366 59.8467 56.7433 59.3333 57.3833 58.96C58.0366 58.5733 58.7699 58.38 59.5833 58.38C60.2633 58.38 60.8966 58.52 61.4833 58.8C62.0699 59.0667 62.5833 59.4467 63.0233 59.94C63.4633 60.4333 63.8033 61.0133 64.0433 61.68C64.2966 62.3333 64.4233 63.0467 64.4233 63.82C64.4233 64.5933 64.2966 65.3133 64.0433 65.98C63.8033 66.6467 63.4566 67.2267 63.0033 67.72C62.5633 68.2133 62.0433 68.6 61.4433 68.88C60.8433 69.16 60.1966 69.3 59.5033 69.3C58.7033 69.3 57.9766 69.1067 57.3233 68.72C56.6699 68.3333 56.1566 67.8 55.7833 67.12L55.7033 69H54.2633ZM59.3033 67.84C59.8099 67.84 60.2699 67.74 60.6833 67.54C61.1099 67.34 61.4766 67.0667 61.7833 66.72C62.1033 66.36 62.3499 65.94 62.5233 65.46C62.6966 64.9667 62.7833 64.4267 62.7833 63.84C62.7833 63.2533 62.6966 62.72 62.5233 62.24C62.3499 61.7467 62.1033 61.3267 61.7833 60.98C61.4766 60.62 61.1099 60.34 60.6833 60.14C60.2699 59.94 59.8099 59.84 59.3033 59.84C58.7966 59.84 58.3299 59.94 57.9033 60.14C57.4899 60.34 57.1233 60.62 56.8033 60.98C56.4966 61.3267 56.2566 61.7467 56.0833 62.24C55.9099 62.72 55.8233 63.2533 55.8233 63.84C55.8233 64.4267 55.9099 64.9667 56.0833 65.46C56.2566 65.94 56.4966 66.36 56.8033 66.72C57.1233 67.0667 57.4899 67.34 57.9033 67.54C58.3299 67.74 58.7966 67.84 59.3033 67.84ZM71.3823 69.3C70.649 69.3 69.969 69.1667 69.3423 68.9C68.729 68.62 68.189 68.24 67.7223 67.76C67.269 67.2667 66.9157 66.6867 66.6623 66.02C66.409 65.3533 66.2823 64.6267 66.2823 63.84C66.2823 63.0533 66.409 62.3267 66.6623 61.66C66.929 60.9933 67.289 60.42 67.7423 59.94C68.209 59.4467 68.7557 59.0667 69.3823 58.8C70.009 58.52 70.689 58.38 71.4223 58.38C72.1557 58.38 72.829 58.52 73.4423 58.8C74.069 59.0667 74.609 59.4467 75.0623 59.94C75.529 60.42 75.889 60.9933 76.1423 61.66C76.3957 62.3267 76.5223 63.0533 76.5223 63.84C76.5223 64.6267 76.389 65.3533 76.1223 66.02C75.869 66.6867 75.509 67.2667 75.0423 67.76C74.589 68.24 74.049 68.62 73.4223 68.9C72.7957 69.1667 72.1157 69.3 71.3823 69.3ZM71.4023 67.84C71.909 67.84 72.369 67.74 72.7823 67.54C73.209 67.34 73.5757 67.0667 73.8823 66.72C74.2023 66.36 74.449 65.94 74.6223 65.46C74.7957 64.9667 74.8823 64.4267 74.8823 63.84C74.8823 63.2533 74.7957 62.72 74.6223 62.24C74.449 61.7467 74.2023 61.3267 73.8823 60.98C73.5757 60.62 73.209 60.34 72.7823 60.14C72.369 59.94 71.909 59.84 71.4023 59.84C70.8957 59.84 70.429 59.94 70.0023 60.14C69.589 60.34 69.2223 60.62 68.9023 60.98C68.5957 61.3267 68.3557 61.7467 68.1823 62.24C68.009 62.72 67.9223 63.2533 67.9223 63.84C67.9223 64.4267 68.009 64.9667 68.1823 65.46C68.3557 65.94 68.5957 66.36 68.9023 66.72C69.2223 67.0667 69.589 67.34 70.0023 67.54C70.429 67.74 70.8957 67.84 71.4023 67.84ZM82.9945 69.3C82.1145 69.3 81.3545 69.1067 80.7145 68.72C80.0745 68.3333 79.5812 67.7867 79.2345 67.08C78.8879 66.36 78.7145 65.5067 78.7145 64.52V58.68H80.3145V64.54C80.3145 65.22 80.4212 65.8067 80.6345 66.3C80.8612 66.7933 81.1745 67.1733 81.5745 67.44C81.9879 67.7067 82.4745 67.84 83.0345 67.84C83.5945 67.84 84.0745 67.7067 84.4745 67.44C84.8879 67.1733 85.2012 66.7933 85.4145 66.3C85.6412 65.8067 85.7545 65.22 85.7545 64.54V58.68H87.3545V64.52C87.3545 65.48 87.1745 66.32 86.8145 67.04C86.4545 67.76 85.9479 68.32 85.2945 68.72C84.6412 69.1067 83.8745 69.3 82.9945 69.3ZM93.9436 69.3C93.3169 69.3 92.7769 69.1733 92.3236 68.92C91.8703 68.6667 91.5169 68.2933 91.2636 67.8C91.0236 67.3067 90.9036 66.7067 90.9036 66V60.04H89.0036V58.68H90.9036V55.22H92.5036V58.68H95.7436V60.04H92.5036V65.92C92.5036 66.5333 92.6303 67.0133 92.8836 67.36C93.1503 67.6933 93.5503 67.86 94.0836 67.86C94.3636 67.86 94.6436 67.82 94.9236 67.74C95.2169 67.6467 95.4769 67.5267 95.7036 67.38L96.1836 68.62C95.9036 68.82 95.5769 68.98 95.2036 69.1C94.8303 69.2333 94.4103 69.3 93.9436 69.3ZM102.623 69V58.68H104.063L104.143 60.26C104.436 59.6867 104.863 59.2333 105.423 58.9C105.983 58.5533 106.623 58.38 107.343 58.38C108.116 58.38 108.789 58.58 109.363 58.98C109.936 59.38 110.363 59.94 110.643 60.66C110.816 60.2067 111.076 59.8133 111.423 59.48C111.769 59.1333 112.176 58.8667 112.643 58.68C113.123 58.48 113.636 58.38 114.183 58.38C114.956 58.38 115.623 58.5667 116.183 58.94C116.756 59.3 117.189 59.8133 117.483 60.48C117.789 61.1467 117.943 61.9467 117.943 62.88V69H116.343V62.98C116.343 61.9667 116.136 61.1933 115.723 60.66C115.309 60.1133 114.709 59.84 113.923 59.84C113.376 59.84 112.889 59.9733 112.463 60.24C112.036 60.4933 111.696 60.8467 111.443 61.3C111.203 61.74 111.083 62.24 111.083 62.8V69H109.483V62.98C109.483 61.9667 109.269 61.1933 108.843 60.66C108.416 60.1133 107.809 59.84 107.023 59.84C106.489 59.84 106.009 59.9733 105.583 60.24C105.156 60.4933 104.823 60.8467 104.583 61.3C104.343 61.74 104.223 62.24 104.223 62.8V69H102.623ZM125.35 69.3C124.59 69.3 123.89 69.1667 123.25 68.9C122.623 68.6333 122.076 68.26 121.61 67.78C121.143 67.2867 120.783 66.7133 120.53 66.06C120.276 65.3933 120.15 64.66 120.15 63.86C120.15 63.0733 120.27 62.3533 120.51 61.7C120.763 61.0333 121.11 60.4533 121.55 59.96C122.003 59.4667 122.53 59.0867 123.13 58.82C123.73 58.54 124.383 58.4 125.09 58.4C125.77 58.4 126.396 58.5267 126.97 58.78C127.556 59.0333 128.063 59.3867 128.49 59.84C128.916 60.2933 129.243 60.8333 129.47 61.46C129.71 62.0867 129.83 62.7667 129.83 63.5V64.16H121.81C121.863 64.9067 122.036 65.56 122.33 66.12C122.636 66.68 123.043 67.1133 123.55 67.42C124.056 67.7267 124.643 67.88 125.31 67.88C125.963 67.88 126.53 67.7467 127.01 67.48C127.503 67.2 127.923 66.7933 128.27 66.26L129.63 66.88C129.363 67.3867 129.016 67.82 128.59 68.18C128.163 68.54 127.67 68.8133 127.11 69C126.563 69.2 125.976 69.3 125.35 69.3ZM125.09 59.76C124.543 59.76 124.043 59.8933 123.59 60.16C123.15 60.4267 122.776 60.8 122.47 61.28C122.176 61.7467 121.983 62.2933 121.89 62.92H128.15C128.096 62.2933 127.93 61.7467 127.65 61.28C127.37 60.8 127.01 60.4267 126.57 60.16C126.13 59.8933 125.636 59.76 125.09 59.76Z" fill="white"/>
</svg>
