<svg width="189" height="77" viewBox="0 0 189 77" fill="none" xmlns="http://www.w3.org/2000/svg">
<path d="M46.701 71.9C46.021 71.9 45.3877 71.7667 44.801 71.5C44.2277 71.2333 43.721 70.8667 43.281 70.4C42.8543 69.92 42.521 69.36 42.281 68.72C42.041 68.08 41.921 67.3933 41.921 66.66C41.921 65.9133 42.041 65.22 42.281 64.58C42.5343 63.94 42.881 63.38 43.321 62.9C43.761 62.42 44.2743 62.0467 44.861 61.78C45.461 61.5133 46.101 61.38 46.781 61.38C47.5677 61.38 48.281 61.5667 48.921 61.94C49.5743 62.3133 50.081 62.8267 50.441 63.48L50.521 61.68H51.961V71.12C51.961 71.9067 51.841 72.62 51.601 73.26C51.361 73.9133 51.021 74.4733 50.581 74.94C50.141 75.4067 49.6143 75.76 49.001 76C48.3877 76.2533 47.7077 76.38 46.961 76.38C46.3077 76.38 45.6943 76.28 45.121 76.08C44.5477 75.8933 44.0343 75.6133 43.581 75.24C43.141 74.88 42.7743 74.4467 42.481 73.94L43.821 73.26C44.2077 73.82 44.661 74.2467 45.181 74.54C45.7143 74.8467 46.3077 75 46.961 75C47.6543 75 48.2543 74.84 48.761 74.52C49.281 74.2133 49.6743 73.7733 49.941 73.2C50.221 72.6267 50.361 71.9533 50.361 71.18V69.86C49.9877 70.5 49.481 71 48.841 71.36C48.201 71.72 47.4877 71.9 46.701 71.9ZM46.981 70.44C47.4743 70.44 47.9277 70.3467 48.341 70.16C48.7677 69.9733 49.1343 69.7133 49.441 69.38C49.7477 69.0333 49.981 68.6267 50.141 68.16C50.3143 67.6933 50.401 67.1867 50.401 66.64C50.401 66.0933 50.3143 65.5867 50.141 65.12C49.981 64.6533 49.7477 64.2533 49.441 63.92C49.1343 63.5733 48.7677 63.3067 48.341 63.12C47.9277 62.9333 47.4743 62.84 46.981 62.84C46.4877 62.84 46.0277 62.9333 45.601 63.12C45.1877 63.3067 44.8277 63.5733 44.521 63.92C44.2143 64.2533 43.9743 64.6533 43.801 65.12C43.641 65.5867 43.561 66.0933 43.561 66.64C43.561 67.1867 43.641 67.6933 43.801 68.16C43.9743 68.6267 44.2143 69.0333 44.521 69.38C44.8277 69.7133 45.1877 69.9733 45.601 70.16C46.0277 70.3467 46.4877 70.44 46.981 70.44ZM59.4452 72.3C58.6852 72.3 57.9852 72.1667 57.3452 71.9C56.7186 71.6333 56.1719 71.26 55.7052 70.78C55.2386 70.2867 54.8786 69.7133 54.6252 69.06C54.3719 68.3933 54.2452 67.66 54.2452 66.86C54.2452 66.0733 54.3652 65.3533 54.6052 64.7C54.8586 64.0333 55.2052 63.4533 55.6452 62.96C56.0986 62.4667 56.6252 62.0867 57.2252 61.82C57.8252 61.54 58.4786 61.4 59.1852 61.4C59.8652 61.4 60.4919 61.5267 61.0652 61.78C61.6519 62.0333 62.1586 62.3867 62.5852 62.84C63.0119 63.2933 63.3386 63.8333 63.5652 64.46C63.8052 65.0867 63.9252 65.7667 63.9252 66.5V67.16H55.9052C55.9586 67.9067 56.1319 68.56 56.4252 69.12C56.7319 69.68 57.1386 70.1133 57.6452 70.42C58.1519 70.7267 58.7386 70.88 59.4052 70.88C60.0586 70.88 60.6252 70.7467 61.1052 70.48C61.5986 70.2 62.0186 69.7933 62.3652 69.26L63.7252 69.88C63.4586 70.3867 63.1119 70.82 62.6852 71.18C62.2586 71.54 61.7652 71.8133 61.2052 72C60.6586 72.2 60.0719 72.3 59.4452 72.3ZM59.1852 62.76C58.6386 62.76 58.1386 62.8933 57.6852 63.16C57.2452 63.4267 56.8719 63.8 56.5652 64.28C56.2719 64.7467 56.0786 65.2933 55.9852 65.92H62.2452C62.1919 65.2933 62.0252 64.7467 61.7452 64.28C61.4652 63.8 61.1052 63.4267 60.6652 63.16C60.2252 62.8933 59.7319 62.76 59.1852 62.76ZM70.0315 72.3C69.4048 72.3 68.8648 72.1733 68.4115 71.92C67.9582 71.6667 67.6048 71.2933 67.3515 70.8C67.1115 70.3067 66.9915 69.7067 66.9915 69V63.04H65.0915V61.68H66.9915V58.22H68.5915V61.68H71.8315V63.04H68.5915V68.92C68.5915 69.5333 68.7182 70.0133 68.9715 70.36C69.2382 70.6933 69.6382 70.86 70.1715 70.86C70.4515 70.86 70.7315 70.82 71.0115 70.74C71.3048 70.6467 71.5648 70.5267 71.7915 70.38L72.2715 71.62C71.9915 71.82 71.6648 71.98 71.2915 72.1C70.9182 72.2333 70.4982 72.3 70.0315 72.3ZM75.0555 57.74C75.3489 57.74 75.6155 57.84 75.8555 58.04C76.1089 58.2267 76.3022 58.4867 76.4355 58.82C76.5822 59.1533 76.6555 59.5267 76.6555 59.94C76.6555 60.62 76.4555 61.24 76.0555 61.8C75.6555 62.3467 75.1022 62.78 74.3955 63.1L73.9755 62.18C74.4555 61.9533 74.8289 61.6533 75.0955 61.28C75.3755 60.9067 75.5155 60.5067 75.5155 60.08C75.5155 59.8267 75.4755 59.6 75.3955 59.4C75.2622 59.5333 75.0955 59.6 74.8955 59.6C74.6422 59.6 74.4289 59.5133 74.2555 59.34C74.0822 59.1667 73.9955 58.9467 73.9955 58.68C73.9955 58.4133 74.0955 58.1933 74.2955 58.02C74.5089 57.8333 74.7622 57.74 75.0555 57.74ZM78.8863 72V61.68H80.3263L80.4063 63.32C80.713 62.7333 81.153 62.2667 81.7263 61.92C82.313 61.56 82.9863 61.38 83.7463 61.38C84.533 61.38 85.2197 61.5667 85.8063 61.94C86.393 62.3133 86.8397 62.8467 87.1463 63.54C87.4663 64.22 87.6263 65.0267 87.6263 65.96V72H86.0263V66.06C86.0263 65.0333 85.7997 64.24 85.3463 63.68C84.9063 63.12 84.273 62.84 83.4463 62.84C82.873 62.84 82.3597 62.9733 81.9063 63.24C81.4663 63.4933 81.1197 63.8533 80.8663 64.32C80.613 64.7733 80.4863 65.2933 80.4863 65.88V72H78.8863ZM98.5862 72.3C97.9595 72.3 97.4195 72.1733 96.9662 71.92C96.5128 71.6667 96.1595 71.2933 95.9062 70.8C95.6662 70.3067 95.5462 69.7067 95.5462 69V63.04H93.6462V61.68H95.5462V58.22H97.1462V61.68H100.386V63.04H97.1462V68.92C97.1462 69.5333 97.2728 70.0133 97.5262 70.36C97.7928 70.6933 98.1928 70.86 98.7262 70.86C99.0062 70.86 99.2862 70.82 99.5662 70.74C99.8595 70.6467 100.12 70.5267 100.346 70.38L100.826 71.62C100.546 71.82 100.22 71.98 99.8462 72.1C99.4728 72.2333 99.0528 72.3 98.5862 72.3ZM107.275 72.3C106.542 72.3 105.862 72.1667 105.235 71.9C104.622 71.62 104.082 71.24 103.615 70.76C103.162 70.2667 102.808 69.6867 102.555 69.02C102.302 68.3533 102.175 67.6267 102.175 66.84C102.175 66.0533 102.302 65.3267 102.555 64.66C102.822 63.9933 103.182 63.42 103.635 62.94C104.102 62.4467 104.648 62.0667 105.275 61.8C105.902 61.52 106.582 61.38 107.315 61.38C108.048 61.38 108.722 61.52 109.335 61.8C109.962 62.0667 110.502 62.4467 110.955 62.94C111.422 63.42 111.782 63.9933 112.035 64.66C112.288 65.3267 112.415 66.0533 112.415 66.84C112.415 67.6267 112.282 68.3533 112.015 69.02C111.762 69.6867 111.402 70.2667 110.935 70.76C110.482 71.24 109.942 71.62 109.315 71.9C108.688 72.1667 108.008 72.3 107.275 72.3ZM107.295 70.84C107.802 70.84 108.262 70.74 108.675 70.54C109.102 70.34 109.468 70.0667 109.775 69.72C110.095 69.36 110.342 68.94 110.515 68.46C110.688 67.9667 110.775 67.4267 110.775 66.84C110.775 66.2533 110.688 65.72 110.515 65.24C110.342 64.7467 110.095 64.3267 109.775 63.98C109.468 63.62 109.102 63.34 108.675 63.14C108.262 62.94 107.802 62.84 107.295 62.84C106.788 62.84 106.322 62.94 105.895 63.14C105.482 63.34 105.115 63.62 104.795 63.98C104.488 64.3267 104.248 64.7467 104.075 65.24C103.902 65.72 103.815 66.2533 103.815 66.84C103.815 67.4267 103.902 67.9667 104.075 68.46C104.248 68.94 104.488 69.36 104.795 69.72C105.115 70.0667 105.482 70.34 105.895 70.54C106.322 70.74 106.788 70.84 107.295 70.84ZM118.887 72.3C118.007 72.3 117.247 72.1067 116.607 71.72C115.967 71.3333 115.474 70.7867 115.127 70.08C114.78 69.36 114.607 68.5067 114.607 67.52V61.68H116.207V67.54C116.207 68.22 116.314 68.8067 116.527 69.3C116.754 69.7933 117.067 70.1733 117.467 70.44C117.88 70.7067 118.367 70.84 118.927 70.84C119.487 70.84 119.967 70.7067 120.367 70.44C120.78 70.1733 121.094 69.7933 121.307 69.3C121.534 68.8067 121.647 68.22 121.647 67.54V61.68H123.247V67.52C123.247 68.48 123.067 69.32 122.707 70.04C122.347 70.76 121.84 71.32 121.187 71.72C120.534 72.1067 119.767 72.3 118.887 72.3ZM130.416 72.3C129.71 72.3 129.056 72.1667 128.456 71.9C127.856 71.6333 127.33 71.26 126.876 70.78C126.423 70.2867 126.07 69.7133 125.816 69.06C125.576 68.4067 125.456 67.6933 125.456 66.92C125.456 66.1467 125.583 65.4267 125.836 64.76C126.09 64.08 126.443 63.4867 126.896 62.98C127.35 62.4733 127.883 62.08 128.496 61.8C129.11 61.52 129.776 61.38 130.496 61.38C131.163 61.38 131.763 61.5 132.296 61.74C132.843 61.98 133.31 62.3067 133.696 62.72C134.096 63.1333 134.403 63.6067 134.616 64.14L133.156 64.64C132.863 64.08 132.483 63.64 132.016 63.32C131.55 63 131.023 62.84 130.436 62.84C129.956 62.84 129.516 62.9467 129.116 63.16C128.716 63.36 128.363 63.64 128.056 64C127.75 64.36 127.51 64.7933 127.336 65.3C127.176 65.7933 127.096 66.3267 127.096 66.9C127.096 67.4733 127.176 68 127.336 68.48C127.51 68.96 127.743 69.38 128.036 69.74C128.33 70.0867 128.676 70.36 129.076 70.56C129.49 70.7467 129.936 70.84 130.416 70.84C131.03 70.84 131.59 70.6867 132.096 70.38C132.616 70.06 133.01 69.62 133.276 69.06L134.736 69.56C134.523 70.12 134.196 70.6067 133.756 71.02C133.33 71.42 132.823 71.7333 132.236 71.96C131.663 72.1867 131.056 72.3 130.416 72.3ZM136.894 72V57.16H138.494V63.18C138.801 62.6333 139.241 62.2 139.814 61.88C140.387 61.5467 141.034 61.38 141.754 61.38C142.541 61.38 143.227 61.5667 143.814 61.94C144.401 62.3133 144.847 62.8467 145.154 63.54C145.474 64.22 145.634 65.0267 145.634 65.96V72H144.034V66.06C144.034 65.0333 143.807 64.24 143.354 63.68C142.914 63.12 142.281 62.84 141.454 62.84C140.881 62.84 140.367 62.9733 139.914 63.24C139.474 63.4933 139.127 63.8533 138.874 64.32C138.621 64.7733 138.494 65.2933 138.494 65.88V72H136.894Z" fill="white"/>
<path d="M15.385 37.75C13.485 37.75 11.7183 37.4167 10.085 36.75C8.48496 36.05 7.08496 35.0833 5.88496 33.85C4.71829 32.6167 3.80163 31.1667 3.13496 29.5C2.46829 27.8 2.13496 25.9667 2.13496 24C2.13496 22 2.46829 20.15 3.13496 18.45C3.83496 16.7167 4.78496 15.2167 5.98496 13.95C7.21829 12.65 8.65163 11.65 10.285 10.95C11.9183 10.2167 13.685 9.85 15.585 9.85C17.485 9.85 19.235 10.2167 20.835 10.95C22.435 11.65 23.785 12.65 24.885 13.95C26.0183 15.25 26.8016 16.7667 27.235 18.5L20.585 19.8C20.085 18.6667 19.385 17.7833 18.485 17.15C17.585 16.4833 16.5683 16.15 15.435 16.15C14.235 16.15 13.1683 16.4833 12.235 17.15C11.335 17.8167 10.6183 18.75 10.085 19.95C9.55163 21.1167 9.28496 22.4333 9.28496 23.9C9.28496 25.3667 9.53496 26.6667 10.035 27.8C10.5683 28.9333 11.3016 29.8333 12.235 30.5C13.1683 31.1333 14.235 31.45 15.435 31.45C16.635 31.45 17.7183 31.1333 18.685 30.5C19.6516 29.8667 20.3683 28.9667 20.835 27.8L27.485 29.1C27.0516 30.8667 26.235 32.4 25.035 33.7C23.8683 35 22.4516 36 20.785 36.7C19.1183 37.4 17.3183 37.75 15.385 37.75ZM44.1064 37.75C42.1398 37.75 40.3231 37.4 38.6564 36.7C36.9898 36 35.5398 35.0333 34.3064 33.8C33.0731 32.5333 32.1064 31.05 31.4064 29.35C30.7398 27.65 30.4064 25.8 30.4064 23.8C30.4064 21.8 30.7564 19.9667 31.4564 18.3C32.1564 16.6 33.1231 15.1167 34.3564 13.85C35.6231 12.5833 37.0898 11.6 38.7564 10.9C40.4564 10.2 42.3064 9.85 44.3064 9.85C46.2731 9.85 48.0898 10.2 49.7564 10.9C51.4231 11.6 52.8731 12.5833 54.1064 13.85C55.3398 15.0833 56.2898 16.55 56.9564 18.25C57.6564 19.9167 58.0064 21.75 58.0064 23.75C58.0064 25.75 57.6564 27.6 56.9564 29.3C56.2564 31 55.2731 32.4833 54.0064 33.75C52.7731 35.0167 51.3064 36 49.6064 36.7C47.9398 37.4 46.1064 37.75 44.1064 37.75ZM44.2064 31.45C45.4731 31.45 46.6064 31.1167 47.6064 30.45C48.6064 29.7833 49.3898 28.8833 49.9564 27.75C50.5564 26.5833 50.8564 25.2667 50.8564 23.8C50.8564 22.3333 50.5564 21.0333 49.9564 19.9C49.3898 18.7333 48.6064 17.8167 47.6064 17.15C46.6064 16.4833 45.4731 16.15 44.2064 16.15C42.9398 16.15 41.8064 16.4833 40.8064 17.15C39.8064 17.8167 39.0064 18.7333 38.4064 19.9C37.8398 21.0333 37.5564 22.3333 37.5564 23.8C37.5564 25.2667 37.8398 26.5833 38.4064 27.75C39.0064 28.8833 39.8064 29.7833 40.8064 30.45C41.8064 31.1167 42.9398 31.45 44.2064 31.45ZM62.6076 37V10.6H69.0576L69.2576 14C70.0243 12.7333 71.0743 11.7333 72.4076 11C73.7743 10.2333 75.3243 9.85 77.0576 9.85C78.991 9.85 80.6743 10.3167 82.1076 11.25C83.5743 12.15 84.7076 13.45 85.5076 15.15C86.3076 16.85 86.7076 18.85 86.7076 21.15V37H79.7076V22.05C79.7076 20.2167 79.291 18.7833 78.4576 17.75C77.6243 16.6833 76.4743 16.15 75.0076 16.15C73.941 16.15 73.0076 16.4 72.2076 16.9C71.4076 17.3667 70.7743 18.0333 70.3076 18.9C69.841 19.7667 69.6076 20.75 69.6076 21.85V37H62.6076ZM103.013 37.75C101.179 37.75 99.596 37.4 98.2627 36.7C96.9627 35.9667 95.946 34.9167 95.2127 33.55C94.5127 32.1833 94.1627 30.5167 94.1627 28.55V16.25H89.6627V10.6H94.1627V1.6H101.163V10.6H108.363V16.25H101.163V27.7C101.163 28.9667 101.429 29.95 101.963 30.65C102.496 31.3167 103.313 31.65 104.413 31.65C104.979 31.65 105.579 31.5667 106.213 31.4C106.879 31.2333 107.513 31.0167 108.113 30.75L109.363 36C108.496 36.5333 107.529 36.95 106.463 37.25C105.396 37.5833 104.246 37.75 103.013 37.75ZM121.441 37.75C120.075 37.75 118.825 37.55 117.691 37.15C116.558 36.75 115.558 36.1833 114.691 35.45C113.858 34.6833 113.208 33.8 112.741 32.8C112.275 31.8 112.041 30.7 112.041 29.5C112.041 27.8333 112.491 26.3667 113.391 25.1C114.291 23.8333 115.558 22.85 117.191 22.15C118.825 21.4167 120.725 21.05 122.891 21.05C123.991 21.05 125.025 21.15 125.991 21.35C126.991 21.55 127.958 21.8333 128.891 22.2V20.65C128.891 19.15 128.458 17.9333 127.591 17C126.758 16.0667 125.608 15.6 124.141 15.6C123.041 15.6 122.041 15.8833 121.141 16.45C120.241 16.9833 119.608 17.75 119.241 18.75L112.991 17.5C113.358 15.9667 114.075 14.6333 115.141 13.5C116.241 12.3333 117.575 11.4333 119.141 10.8C120.708 10.1667 122.408 9.85 124.241 9.85C125.941 9.85 127.491 10.1167 128.891 10.65C130.291 11.1833 131.491 11.95 132.491 12.95C133.525 13.95 134.308 15.1333 134.841 16.5C135.408 17.8333 135.691 19.3333 135.691 21V37H129.441L129.241 33.9C128.541 35.0333 127.525 35.9667 126.191 36.7C124.858 37.4 123.275 37.75 121.441 37.75ZM118.941 29.15C118.941 30.0833 119.325 30.85 120.091 31.45C120.858 32.05 121.875 32.35 123.141 32.35C124.241 32.35 125.225 32.1167 126.091 31.65C126.958 31.1833 127.641 30.55 128.141 29.75C128.641 28.9167 128.891 28 128.891 27V26.75C128.158 26.45 127.375 26.2167 126.541 26.05C125.708 25.85 124.875 25.75 124.041 25.75C122.475 25.75 121.225 26.0667 120.291 26.7C119.391 27.3 118.941 28.1167 118.941 29.15ZM153.52 37.75C151.62 37.75 149.853 37.4167 148.22 36.75C146.62 36.05 145.22 35.0833 144.02 33.85C142.853 32.6167 141.936 31.1667 141.27 29.5C140.603 27.8 140.27 25.9667 140.27 24C140.27 22 140.603 20.15 141.27 18.45C141.97 16.7167 142.92 15.2167 144.12 13.95C145.353 12.65 146.786 11.65 148.42 10.95C150.053 10.2167 151.82 9.85 153.72 9.85C155.62 9.85 157.37 10.2167 158.97 10.95C160.57 11.65 161.92 12.65 163.02 13.95C164.153 15.25 164.936 16.7667 165.37 18.5L158.72 19.8C158.22 18.6667 157.52 17.7833 156.62 17.15C155.72 16.4833 154.703 16.15 153.57 16.15C152.37 16.15 151.303 16.4833 150.37 17.15C149.47 17.8167 148.753 18.75 148.22 19.95C147.686 21.1167 147.42 22.4333 147.42 23.9C147.42 25.3667 147.67 26.6667 148.17 27.8C148.703 28.9333 149.436 29.8333 150.37 30.5C151.303 31.1333 152.37 31.45 153.57 31.45C154.77 31.45 155.853 31.1333 156.82 30.5C157.786 29.8667 158.503 28.9667 158.97 27.8L165.62 29.1C165.186 30.8667 164.37 32.4 163.17 33.7C162.003 35 160.586 36 158.92 36.7C157.253 37.4 155.453 37.75 153.52 37.75ZM180.991 37.75C179.158 37.75 177.575 37.4 176.241 36.7C174.941 35.9667 173.925 34.9167 173.191 33.55C172.491 32.1833 172.141 30.5167 172.141 28.55V16.25H167.641V10.6H172.141V1.6H179.141V10.6H186.341V16.25H179.141V27.7C179.141 28.9667 179.408 29.95 179.941 30.65C180.475 31.3167 181.291 31.65 182.391 31.65C182.958 31.65 183.558 31.5667 184.191 31.4C184.858 31.2333 185.491 31.0167 186.091 30.75L187.341 36C186.475 36.5333 185.508 36.95 184.441 37.25C183.375 37.5833 182.225 37.75 180.991 37.75Z" fill="#212D40"/>
</svg>
