<svg width="182" height="62" viewBox="0 0 182 62" fill="none" xmlns="http://www.w3.org/2000/svg">
<path d="M0.123888 60V3.2H33.8039V11.76H9.72389V28.08H31.3239V36.64H9.72389V60H0.123888ZM62.2126 6.48C62.2126 7.49333 61.946 8.42666 61.4126 9.28C60.9326 10.1333 60.266 10.8267 59.4126 11.36C58.5593 11.84 57.626 12.08 56.6126 12.08C55.5993 12.08 54.666 11.84 53.8126 11.36C52.9593 10.8267 52.266 10.1333 51.7326 9.28C51.2526 8.42666 51.0126 7.49333 51.0126 6.48C51.0126 5.46666 51.2526 4.53333 51.7326 3.68C52.266 2.82666 52.9593 2.16 53.8126 1.68C54.666 1.14666 55.5993 0.879998 56.6126 0.879998C57.626 0.879998 58.5593 1.14666 59.4126 1.68C60.266 2.16 60.9326 2.82666 61.4126 3.68C61.946 4.53333 62.2126 5.46666 62.2126 6.48ZM52.0526 60V18.16H61.2526V60H52.0526ZM98.4733 61.2C95.6999 61.2 93.1133 60.64 90.7133 59.52C88.3666 58.4 86.3133 56.8533 84.5533 54.88C82.7933 52.9067 81.4066 50.5867 80.3933 47.92C79.4333 45.2533 78.9533 42.3733 78.9533 39.28C78.9533 36.1333 79.4599 33.2 80.4733 30.48C81.4866 27.76 82.8999 25.3867 84.7133 23.36C86.5266 21.3333 88.6333 19.76 91.0333 18.64C93.4866 17.52 96.1266 16.96 98.9533 16.96C101.727 16.96 104.26 17.5467 106.553 18.72C108.847 19.8933 110.74 21.5467 112.233 23.68V0.479999H121.433V60H113.033L112.633 53.28C111.14 55.7333 109.167 57.68 106.713 59.12C104.26 60.5067 101.513 61.2 98.4733 61.2ZM100.393 52.88C102.687 52.88 104.74 52.2933 106.553 51.12C108.367 49.8933 109.78 48.24 110.793 46.16C111.86 44.08 112.393 41.7333 112.393 39.12C112.393 36.4533 111.86 34.08 110.793 32C109.78 29.92 108.367 28.2933 106.553 27.12C104.74 25.8933 102.687 25.28 100.393 25.28C98.0999 25.28 96.0466 25.8933 94.2333 27.12C92.4199 28.2933 90.9799 29.92 89.9133 32C88.8999 34.08 88.3933 36.4533 88.3933 39.12C88.3933 41.7333 88.8999 44.08 89.9133 46.16C90.9799 48.24 92.4199 49.8933 94.2333 51.12C96.0466 52.2933 98.0999 52.88 100.393 52.88ZM160.38 61.2C157.34 61.2 154.513 60.6667 151.9 59.6C149.34 58.48 147.1 56.9333 145.18 54.96C143.26 52.9333 141.767 50.5867 140.7 47.92C139.633 45.2 139.1 42.24 139.1 39.04C139.1 35.8933 139.633 32.9867 140.7 30.32C141.767 27.6 143.26 25.2533 145.18 23.28C147.153 21.2533 149.447 19.7067 152.06 18.64C154.727 17.52 157.607 16.96 160.7 16.96C163.74 16.96 166.54 17.52 169.1 18.64C171.713 19.7067 173.98 21.2533 175.9 23.28C177.82 25.2533 179.313 27.5733 180.38 30.24C181.447 32.9067 181.98 35.84 181.98 39.04C181.98 42.24 181.447 45.2 180.38 47.92C179.313 50.5867 177.793 52.9333 175.82 54.96C173.9 56.9333 171.607 58.48 168.94 59.6C166.327 60.6667 163.473 61.2 160.38 61.2ZM160.54 52.88C162.833 52.88 164.887 52.2933 166.7 51.12C168.513 49.8933 169.927 48.24 170.94 46.16C172.007 44.08 172.54 41.7067 172.54 39.04C172.54 36.3733 172.007 34.0267 170.94 32C169.927 29.92 168.513 28.2933 166.7 27.12C164.887 25.8933 162.833 25.28 160.54 25.28C158.247 25.28 156.193 25.8933 154.38 27.12C152.567 28.2933 151.127 29.92 150.06 32C149.047 34.0267 148.54 36.3733 148.54 39.04C148.54 41.7067 149.047 44.08 150.06 46.16C151.127 48.24 152.567 49.8933 154.38 51.12C156.193 52.2933 158.247 52.88 160.54 52.88Z" fill="white"/>
</svg>
