<svg width="137" height="74" viewBox="0 0 137 74" fill="none" xmlns="http://www.w3.org/2000/svg">
<path d="M30.4739 73V64.04H28.5739V62.68H30.4739V61.72C30.4739 60.96 30.6072 60.3 30.8739 59.74C31.1539 59.1667 31.5339 58.7267 32.0139 58.42C32.5072 58.1133 33.0739 57.96 33.7139 57.96C34.3539 57.96 34.9206 58.1133 35.4139 58.42L34.9539 59.66C34.7939 59.5667 34.6139 59.4933 34.4139 59.44C34.2272 59.3867 34.0272 59.36 33.8139 59.36C33.2539 59.36 32.8206 59.5667 32.5139 59.98C32.2206 60.38 32.0739 60.9733 32.0739 61.76V62.68H38.7139V73H37.1139V64.04H32.0739V73H30.4739ZM39.0139 59.66C39.0139 59.86 38.9606 60.0467 38.8539 60.22C38.7606 60.38 38.6272 60.5133 38.4539 60.62C38.2939 60.7133 38.1139 60.76 37.9139 60.76C37.7139 60.76 37.5272 60.7133 37.3539 60.62C37.1939 60.5133 37.0606 60.38 36.9539 60.22C36.8606 60.0467 36.8139 59.86 36.8139 59.66C36.8139 59.46 36.8606 59.28 36.9539 59.12C37.0606 58.9467 37.1939 58.8133 37.3539 58.72C37.5272 58.6133 37.7139 58.56 37.9139 58.56C38.1139 58.56 38.2939 58.6133 38.4539 58.72C38.6272 58.8133 38.7606 58.9467 38.8539 59.12C38.9606 59.28 39.0139 59.46 39.0139 59.66ZM45.8294 73.3C45.1494 73.3 44.516 73.1667 43.9294 72.9C43.3427 72.62 42.8294 72.2333 42.3894 71.74C41.9494 71.2467 41.6027 70.6733 41.3494 70.02C41.1094 69.3533 40.9894 68.6333 40.9894 67.86C40.9894 67.0867 41.1094 66.3667 41.3494 65.7C41.6027 65.0333 41.9494 64.4533 42.3894 63.96C42.8427 63.4667 43.3694 63.08 43.9694 62.8C44.5694 62.52 45.216 62.38 45.9094 62.38C46.696 62.38 47.4027 62.56 48.0294 62.92C48.6694 63.28 49.176 63.7867 49.5494 64.44V58.16H51.1494V73H49.7094L49.6294 71.04C49.256 71.7467 48.736 72.3 48.0694 72.7C47.416 73.1 46.6694 73.3 45.8294 73.3ZM46.1094 71.84C46.616 71.84 47.076 71.74 47.4894 71.54C47.916 71.34 48.2827 71.0667 48.5894 70.72C48.9094 70.36 49.156 69.94 49.3294 69.46C49.5027 68.9667 49.5894 68.4267 49.5894 67.84C49.5894 67.2533 49.5027 66.72 49.3294 66.24C49.156 65.7467 48.9094 65.3267 48.5894 64.98C48.2827 64.62 47.916 64.34 47.4894 64.14C47.076 63.94 46.616 63.84 46.1094 63.84C45.6027 63.84 45.136 63.94 44.7094 64.14C44.296 64.34 43.9294 64.62 43.6094 64.98C43.3027 65.3267 43.0627 65.7467 42.8894 66.24C42.716 66.72 42.6294 67.2533 42.6294 67.84C42.6294 68.4267 42.716 68.9667 42.8894 69.46C43.0627 69.94 43.3027 70.36 43.6094 70.72C43.9294 71.0667 44.296 71.34 44.7094 71.54C45.136 71.74 45.6027 71.84 46.1094 71.84ZM58.5308 73.3C57.7974 73.3 57.1174 73.1667 56.4908 72.9C55.8774 72.62 55.3374 72.24 54.8708 71.76C54.4174 71.2667 54.0641 70.6867 53.8108 70.02C53.5574 69.3533 53.4308 68.6267 53.4308 67.84C53.4308 67.0533 53.5574 66.3267 53.8108 65.66C54.0774 64.9933 54.4374 64.42 54.8908 63.94C55.3574 63.4467 55.9041 63.0667 56.5308 62.8C57.1574 62.52 57.8374 62.38 58.5708 62.38C59.3041 62.38 59.9774 62.52 60.5908 62.8C61.2174 63.0667 61.7574 63.4467 62.2108 63.94C62.6774 64.42 63.0374 64.9933 63.2908 65.66C63.5441 66.3267 63.6708 67.0533 63.6708 67.84C63.6708 68.6267 63.5374 69.3533 63.2708 70.02C63.0174 70.6867 62.6574 71.2667 62.1908 71.76C61.7374 72.24 61.1974 72.62 60.5708 72.9C59.9441 73.1667 59.2641 73.3 58.5308 73.3ZM58.5508 71.84C59.0574 71.84 59.5174 71.74 59.9308 71.54C60.3574 71.34 60.7241 71.0667 61.0308 70.72C61.3508 70.36 61.5974 69.94 61.7708 69.46C61.9441 68.9667 62.0308 68.4267 62.0308 67.84C62.0308 67.2533 61.9441 66.72 61.7708 66.24C61.5974 65.7467 61.3508 65.3267 61.0308 64.98C60.7241 64.62 60.3574 64.34 59.9308 64.14C59.5174 63.94 59.0574 63.84 58.5508 63.84C58.0441 63.84 57.5774 63.94 57.1508 64.14C56.7374 64.34 56.3708 64.62 56.0508 64.98C55.7441 65.3267 55.5041 65.7467 55.3308 66.24C55.1574 66.72 55.0708 67.2533 55.0708 67.84C55.0708 68.4267 55.1574 68.9667 55.3308 69.46C55.5041 69.94 55.7441 70.36 56.0508 70.72C56.3708 71.0667 56.7374 71.34 57.1508 71.54C57.5774 71.74 58.0441 71.84 58.5508 71.84ZM69.983 73.4C69.3163 73.4 68.703 73.3 68.143 73.1C67.583 72.9 67.0963 72.62 66.683 72.26C66.2696 71.9 65.9496 71.48 65.723 71C65.4963 70.5067 65.383 69.9667 65.383 69.38C65.383 68.8333 65.4963 68.3067 65.723 67.8C65.9496 67.2933 66.2763 66.8333 66.703 66.42C67.1296 65.9933 67.6296 65.64 68.203 65.36C67.603 64.7333 67.1563 64.14 66.863 63.58C66.583 63.02 66.443 62.4533 66.443 61.88C66.443 61.4 66.5296 60.9533 66.703 60.54C66.8896 60.1267 67.143 59.7733 67.463 59.48C67.783 59.1733 68.1563 58.9333 68.583 58.76C69.0096 58.5867 69.4763 58.5 69.983 58.5C70.6496 58.5 71.243 58.64 71.763 58.92C72.283 59.1867 72.6896 59.56 72.983 60.04C73.2896 60.52 73.443 61.0667 73.443 61.68C73.443 62.44 73.2096 63.14 72.743 63.78C72.2763 64.42 71.5563 65.02 70.583 65.58L74.363 69.3C74.6696 68.7667 74.9163 68.1667 75.103 67.5C75.303 66.8333 75.4363 66.1067 75.503 65.32L77.023 65.46C76.9163 66.4333 76.723 67.3333 76.443 68.16C76.1763 68.9733 75.8363 69.7 75.423 70.34L78.123 73H75.963L74.483 71.54C73.8963 72.14 73.223 72.6 72.463 72.92C71.703 73.24 70.8763 73.4 69.983 73.4ZM69.483 64.48L69.603 64.58C71.123 63.82 71.883 62.8733 71.883 61.74C71.883 61.3933 71.803 61.0867 71.643 60.82C71.483 60.54 71.2563 60.32 70.963 60.16C70.683 60 70.363 59.92 70.003 59.92C69.6296 59.92 69.2963 60.0133 69.003 60.2C68.7096 60.3733 68.4763 60.6133 68.303 60.92C68.1296 61.2133 68.043 61.5467 68.043 61.92C68.043 62.3067 68.1563 62.7067 68.383 63.12C68.6096 63.52 68.9763 63.9733 69.483 64.48ZM67.063 69.28C67.063 69.7867 67.1896 70.24 67.443 70.64C67.7096 71.04 68.0696 71.3533 68.523 71.58C68.9896 71.7933 69.523 71.9 70.123 71.9C70.763 71.9 71.363 71.78 71.923 71.54C72.483 71.3 72.9896 70.96 73.443 70.52L69.183 66.3C68.4896 66.66 67.963 67.0933 67.603 67.6C67.243 68.1067 67.063 68.6667 67.063 69.28ZM79.6539 73V62.68H81.0939L81.1739 64.26C81.4672 63.6867 81.8939 63.2333 82.4539 62.9C83.0139 62.5533 83.6539 62.38 84.3739 62.38C85.1472 62.38 85.8206 62.58 86.3939 62.98C86.9672 63.38 87.3939 63.94 87.6739 64.66C87.8472 64.2067 88.1072 63.8133 88.4539 63.48C88.8006 63.1333 89.2072 62.8667 89.6739 62.68C90.1539 62.48 90.6672 62.38 91.2139 62.38C91.9872 62.38 92.6539 62.5667 93.2139 62.94C93.7872 63.3 94.2206 63.8133 94.5139 64.48C94.8206 65.1467 94.9739 65.9467 94.9739 66.88V73H93.3739V66.98C93.3739 65.9667 93.1672 65.1933 92.7539 64.66C92.3406 64.1133 91.7406 63.84 90.9539 63.84C90.4072 63.84 89.9206 63.9733 89.4939 64.24C89.0672 64.4933 88.7272 64.8467 88.4739 65.3C88.2339 65.74 88.1139 66.24 88.1139 66.8V73H86.5139V66.98C86.5139 65.9667 86.3006 65.1933 85.8739 64.66C85.4472 64.1133 84.8406 63.84 84.0539 63.84C83.5206 63.84 83.0406 63.9733 82.6139 64.24C82.1872 64.4933 81.8539 64.8467 81.6139 65.3C81.3739 65.74 81.2539 66.24 81.2539 66.8V73H79.6539ZM102.381 73.3C101.621 73.3 100.921 73.1667 100.281 72.9C99.6541 72.6333 99.1074 72.26 98.6408 71.78C98.1741 71.2867 97.8141 70.7133 97.5608 70.06C97.3074 69.3933 97.1808 68.66 97.1808 67.86C97.1808 67.0733 97.3008 66.3533 97.5408 65.7C97.7941 65.0333 98.1408 64.4533 98.5808 63.96C99.0341 63.4667 99.5608 63.0867 100.161 62.82C100.761 62.54 101.414 62.4 102.121 62.4C102.801 62.4 103.427 62.5267 104.001 62.78C104.587 63.0333 105.094 63.3867 105.521 63.84C105.947 64.2933 106.274 64.8333 106.501 65.46C106.741 66.0867 106.861 66.7667 106.861 67.5V68.16H98.8408C98.8941 68.9067 99.0674 69.56 99.3608 70.12C99.6674 70.68 100.074 71.1133 100.581 71.42C101.087 71.7267 101.674 71.88 102.341 71.88C102.994 71.88 103.561 71.7467 104.041 71.48C104.534 71.2 104.954 70.7933 105.301 70.26L106.661 70.88C106.394 71.3867 106.047 71.82 105.621 72.18C105.194 72.54 104.701 72.8133 104.141 73C103.594 73.2 103.007 73.3 102.381 73.3ZM102.121 63.76C101.574 63.76 101.074 63.8933 100.621 64.16C100.181 64.4267 99.8074 64.8 99.5008 65.28C99.2074 65.7467 99.0141 66.2933 98.9208 66.92H105.181C105.127 66.2933 104.961 65.7467 104.681 65.28C104.401 64.8 104.041 64.4267 103.601 64.16C103.161 63.8933 102.667 63.76 102.121 63.76Z" fill="white"/>
<path d="M3.16035 38V0.699997H10.1604V14.5C10.9604 13.3667 11.9937 12.4833 13.2604 11.85C14.527 11.1833 15.977 10.85 17.6104 10.85C19.5437 10.85 21.227 11.3167 22.6604 12.25C24.127 13.15 25.2604 14.45 26.0604 16.15C26.8604 17.85 27.2604 19.85 27.2604 22.15V38H20.2604V23.05C20.2604 21.2167 19.8437 19.7833 19.0104 18.75C18.177 17.6833 17.027 17.15 15.5604 17.15C14.4937 17.15 13.5604 17.4 12.7604 17.9C11.9604 18.3667 11.327 19.0333 10.8604 19.9C10.3937 20.7667 10.1604 21.75 10.1604 22.85V38H3.16035ZM45.5479 38.75C43.5812 38.75 41.7645 38.4 40.0979 37.7C38.4312 37 36.9812 36.0333 35.7479 34.8C34.5145 33.5333 33.5479 32.05 32.8479 30.35C32.1812 28.65 31.8479 26.8 31.8479 24.8C31.8479 22.8 32.1979 20.9667 32.8979 19.3C33.5979 17.6 34.5645 16.1167 35.7979 14.85C37.0645 13.5833 38.5312 12.6 40.1979 11.9C41.8979 11.2 43.7479 10.85 45.7479 10.85C47.7145 10.85 49.5312 11.2 51.1979 11.9C52.8645 12.6 54.3145 13.5833 55.5479 14.85C56.7812 16.0833 57.7312 17.55 58.3979 19.25C59.0979 20.9167 59.4479 22.75 59.4479 24.75C59.4479 26.75 59.0979 28.6 58.3979 30.3C57.6979 32 56.7145 33.4833 55.4479 34.75C54.2145 36.0167 52.7479 37 51.0479 37.7C49.3812 38.4 47.5479 38.75 45.5479 38.75ZM45.6479 32.45C46.9145 32.45 48.0479 32.1167 49.0479 31.45C50.0479 30.7833 50.8312 29.8833 51.3979 28.75C51.9979 27.5833 52.2979 26.2667 52.2979 24.8C52.2979 23.3333 51.9979 22.0333 51.3979 20.9C50.8312 19.7333 50.0479 18.8167 49.0479 18.15C48.0479 17.4833 46.9145 17.15 45.6479 17.15C44.3812 17.15 43.2479 17.4833 42.2479 18.15C41.2479 18.8167 40.4479 19.7333 39.8479 20.9C39.2812 22.0333 38.9979 23.3333 38.9979 24.8C38.9979 26.2667 39.2812 27.5833 39.8479 28.75C40.4479 29.8833 41.2479 30.7833 42.2479 31.45C43.2479 32.1167 44.3812 32.45 45.6479 32.45ZM64.049 38V11.6H70.499L70.699 14.95C71.4657 13.6833 72.499 12.6833 73.799 11.95C75.099 11.2167 76.5657 10.85 78.199 10.85C79.9657 10.85 81.5324 11.2833 82.899 12.15C84.299 13.0167 85.3824 14.2167 86.149 15.75C86.949 14.2833 88.099 13.1 89.599 12.2C91.1324 11.3 92.8824 10.85 94.849 10.85C96.8157 10.85 98.5157 11.3167 99.949 12.25C101.382 13.15 102.482 14.45 103.249 16.15C104.049 17.85 104.449 19.85 104.449 22.15V38H97.449V23.05C97.449 21.2167 97.049 19.7833 96.249 18.75C95.449 17.6833 94.3324 17.15 92.899 17.15C91.899 17.15 90.999 17.4 90.199 17.9C89.4324 18.3667 88.8324 19.0333 88.399 19.9C87.9657 20.7667 87.749 21.75 87.749 22.85V38H80.749V23.05C80.749 21.2167 80.349 19.7833 79.549 18.75C78.749 17.6833 77.6324 17.15 76.199 17.15C75.199 17.15 74.299 17.4 73.499 17.9C72.7324 18.3667 72.1324 19.0333 71.699 19.9C71.2657 20.7667 71.049 21.75 71.049 22.85V38H64.049ZM122.545 38.75C120.578 38.75 118.762 38.4167 117.095 37.75C115.462 37.05 114.045 36.0833 112.845 34.85C111.645 33.5833 110.712 32.1 110.045 30.4C109.378 28.6667 109.045 26.7833 109.045 24.75C109.045 22.7833 109.378 20.95 110.045 19.25C110.712 17.55 111.628 16.0833 112.795 14.85C113.995 13.5833 115.395 12.6 116.995 11.9C118.595 11.2 120.328 10.85 122.195 10.85C124.128 10.85 125.878 11.1833 127.445 11.85C129.045 12.5167 130.412 13.4667 131.545 14.7C132.678 15.9333 133.545 17.4 134.145 19.1C134.778 20.8 135.095 22.7 135.095 24.8V26.55H116.145C116.445 28.5167 117.162 30.0667 118.295 31.2C119.428 32.3 120.862 32.85 122.595 32.85C123.795 32.85 124.878 32.5667 125.845 32C126.845 31.4333 127.662 30.6167 128.295 29.55L134.545 31.55C133.945 33.05 133.045 34.3333 131.845 35.4C130.645 36.4667 129.245 37.3 127.645 37.9C126.045 38.4667 124.345 38.75 122.545 38.75ZM122.195 16.25C120.662 16.25 119.362 16.75 118.295 17.75C117.262 18.75 116.578 20.1167 116.245 21.85H127.895C127.628 20.1167 126.978 18.75 125.945 17.75C124.945 16.75 123.695 16.25 122.195 16.25Z" fill="#212D40"/>
</svg>
